{"glyphs":{"0":{"ha":675,"x_min":0,"x_max":0,"o":"m 236 275 b 210 388 222 311 215 349 b 221 647 197 474 203 563 b 343 833 232 696 282 833 b 456 661 401 833 444 707 b 453 344 479 558 476 447 b 328 158 443 296 393 158 b 236 275 286 161 251 236 z m 542 182 b 608 436 581 260 600 349 b 558 793 618 556 604 682 b 346 972 521 879 449 972 b 113 764 225 972 153 864 b 68 406 68 653 57 526 b 336 19 81 257 153 19 b 542 182 433 19 501 103 z "},"1":{"ha":433,"x_min":0,"x_max":0,"o":"m 342 78 b 336 718 340 292 322 504 b 361 904 340 781 346 843 b 356 947 365 918 363 935 b 294 986 343 974 319 986 b 226 936 267 986 238 969 b 185 876 222 925 192 886 b 93 794 168 856 119 800 b 79 658 22 782 11 682 b 118 654 92 653 104 654 b 196 693 133 656 182 683 b 200 214 188 533 196 374 b 204 65 201 193 201 85 b 272 8 211 26 242 8 b 342 78 307 8 343 32 z "},"2":{"ha":771,"x_min":0,"x_max":0,"o":"m 721 96 b 704 140 722 113 714 128 b 656 167 696 154 672 167 b 617 158 642 167 628 163 b 594 140 608 154 603 146 b 501 121 571 122 531 121 b 397 131 467 121 431 125 b 642 538 515 238 603 383 b 639 797 663 622 667 715 b 406 988 604 904 510 988 b 144 790 294 988 183 888 b 132 676 131 756 122 713 b 157 643 136 663 146 650 b 197 631 169 635 183 631 b 267 701 236 631 271 660 b 363 836 263 750 321 814 b 407 847 376 843 392 847 b 490 792 442 847 474 818 b 518 629 519 744 524 683 b 200 161 494 447 367 246 b 161 146 193 158 167 147 b 69 124 129 142 97 136 b 35 76 51 115 40 94 b 100 -7 25 38 60 -7 b 192 10 131 -7 164 1 b 254 8 203 13 243 10 b 433 -14 314 3 374 -8 b 501 -17 456 -15 478 -17 b 721 96 574 -17 713 3 z "},"3":{"ha":647,"x_min":0,"x_max":0,"o":"m 594 300 b 383 571 594 432 499 522 b 479 732 424 619 461 672 b 490 847 492 769 497 810 b 331 993 474 926 413 989 b 58 800 233 993 83 901 b 60 744 53 782 51 761 b 124 704 72 718 97 704 b 176 729 143 704 163 713 b 193 764 185 739 188 753 b 294 847 208 801 258 833 b 331 854 301 850 324 857 b 349 779 356 843 357 806 b 236 617 329 715 285 663 b 197 576 224 603 207 592 b 214 483 181 547 186 503 b 344 438 251 457 303 457 b 447 342 386 417 431 385 b 322 150 481 257 410 172 b 265 143 304 146 285 143 b 204 150 244 143 224 146 b 160 181 186 154 174 169 b 126 190 150 188 138 190 b 101 186 117 190 108 189 b 58 99 64 176 49 135 b 172 15 69 60 138 25 b 264 3 201 7 233 3 b 594 300 429 3 594 126 z "},"4":{"ha":733,"x_min":0,"x_max":0,"o":"m 376 647 b 375 508 375 600 374 554 b 267 501 339 506 303 504 b 376 647 304 549 340 597 z m 524 78 b 517 372 524 176 519 275 b 621 361 551 372 588 371 b 663 367 635 358 650 361 b 668 490 714 390 718 461 b 606 507 658 496 617 506 b 514 513 575 510 544 511 b 538 886 513 572 518 829 b 544 917 540 896 544 907 b 475 988 544 958 511 988 b 431 971 460 988 444 982 b 411 942 422 963 415 953 b 336 829 401 925 347 844 b 158 589 279 747 219 667 b 64 476 129 549 99 511 b 86 347 8 443 22 358 b 129 349 100 344 115 347 b 378 369 211 358 294 365 b 385 78 381 272 385 175 b 454 7 385 40 417 7 b 524 78 492 7 524 38 z "},"5":{"ha":733,"x_min":0,"x_max":0,"o":"m 631 208 b 674 443 669 278 688 364 b 415 692 649 576 546 665 b 250 697 361 701 306 699 b 253 825 250 739 251 782 b 421 832 308 829 364 832 b 476 829 439 832 458 832 b 547 822 500 826 525 815 b 589 922 592 833 608 882 b 413 971 568 969 469 971 b 175 957 333 971 254 965 b 117 888 138 954 121 919 b 111 685 114 819 111 753 b 124 593 111 654 111 621 b 189 554 135 569 164 551 b 314 560 231 557 272 560 b 489 507 379 560 438 554 b 539 397 519 479 538 438 b 376 163 543 296 474 194 b 308 151 356 156 332 151 b 190 200 264 151 222 168 b 156 235 179 211 169 226 b 121 244 143 242 132 244 b 68 129 68 244 31 181 b 313 13 126 53 218 13 b 631 208 442 13 569 97 z "},"6":{"ha":646,"x_min":0,"x_max":0,"o":"m 214 258 b 201 392 201 301 200 347 b 340 468 236 421 293 468 b 456 339 413 468 456 406 b 424 201 457 292 447 242 b 335 156 404 169 371 156 b 214 258 267 156 231 194 z m 572 193 b 592 388 594 254 599 322 b 339 610 575 511 463 610 b 233 582 296 610 271 599 b 369 856 253 657 306 804 b 392 858 372 858 388 857 b 440 961 439 867 461 918 b 357 997 424 997 390 997 b 154 775 263 993 188 849 b 67 447 107 672 79 560 b 63 421 67 439 63 429 b 64 407 63 415 64 411 b 104 156 58 322 68 232 b 336 15 149 65 235 15 b 572 193 451 15 538 86 z "},"7":{"ha":632,"x_min":0,"x_max":0,"o":"m 199 46 b 292 256 235 114 263 185 b 419 533 331 350 374 443 b 546 782 435 565 529 751 b 604 904 567 821 592 860 b 556 993 614 939 590 981 b 517 997 543 997 529 997 b 372 981 497 997 392 982 b 151 969 300 971 225 965 b 114 975 139 969 126 975 b 49 882 65 975 32 926 b 68 853 53 871 60 861 b 199 829 89 832 156 829 b 424 847 275 829 349 838 b 269 543 403 808 289 582 b 176 339 238 476 206 408 b 75 111 163 306 96 140 b 68 56 65 96 63 74 b 133 4 76 22 104 4 b 199 46 158 4 185 18 z "},"8":{"ha":735,"x_min":0,"x_max":0,"o":"m 299 131 b 246 354 225 174 208 278 b 378 436 271 406 324 436 b 504 343 436 436 483 397 b 503 197 522 297 522 242 b 371 113 478 143 431 113 b 299 131 346 113 319 118 z m 315 589 b 265 632 296 597 278 613 b 331 869 215 707 250 831 b 388 882 349 878 368 882 b 475 847 419 882 451 869 b 478 608 536 789 538 668 b 385 574 454 585 418 574 b 315 589 361 574 336 579 z m 510 35 b 647 383 644 97 715 251 b 515 506 619 436 569 481 b 628 625 563 533 604 576 b 643 782 650 674 656 731 b 385 974 618 901 501 974 b 126 818 276 974 172 919 b 121 624 97 757 96 686 b 226 504 140 575 181 531 b 60 260 129 460 60 369 b 361 4 60 94 211 4 b 510 35 413 4 464 14 z "},"9":{"ha":644,"x_min":0,"x_max":0,"o":"m 201 615 b 192 711 189 644 188 679 b 311 858 196 783 231 858 b 413 804 351 858 392 839 b 444 622 443 751 446 683 b 304 546 410 592 353 546 b 201 615 261 546 219 572 z m 436 133 b 579 565 518 261 563 415 b 583 593 579 575 583 583 b 582 606 583 597 582 601 b 542 857 588 690 578 781 b 315 997 499 946 413 997 b 82 842 204 997 125 943 b 56 626 53 775 46 699 b 306 404 68 503 183 404 b 413 431 347 404 375 414 b 276 157 392 349 342 217 b 254 156 274 154 258 156 b 217 38 199 146 178 76 b 275 17 233 18 251 17 b 436 133 353 17 397 74 z "},"\u0000":{"ha":0,"x_min":0,"x_max":0,"o":""},"\r":{"ha":0,"x_min":0,"x_max":0,"o":""}," ":{"ha":417,"x_min":0,"x_max":0,"o":""},"\n":{"ha":0,"x_min":0,"x_max":0,"o":""},"!":{"ha":292,"x_min":0,"x_max":0,"o":"m 214 351 b 214 683 218 394 214 639 b 218 889 214 751 217 821 b 149 967 218 933 200 967 b 79 888 103 967 79 931 b 75 682 78 819 75 750 b 75 353 75 572 79 463 b 144 282 75 314 106 282 b 214 351 182 282 211 313 z m 193 31 b 163 150 232 71 217 135 b 144 153 156 151 150 153 b 86 40 90 153 53 88 b 143 10 100 21 122 10 b 193 31 161 10 179 17 z "},"\"":{"ha":382,"x_min":0,"x_max":0,"o":"m 313 832 b 344 868 328 839 338 853 b 350 965 351 883 350 949 b 329 1018 350 985 343 1006 b 282 1039 315 1032 299 1039 b 211 965 246 1039 213 1008 b 211 881 211 953 208 892 b 278 822 217 846 244 825 b 313 832 290 822 303 826 z m 168 869 b 169 958 172 885 171 943 b 101 1015 167 990 133 1015 b 33 958 71 1015 40 994 b 33 882 31 947 33 894 b 101 825 36 851 71 825 b 168 869 131 825 157 842 z "},"‟":{"ha":382,"x_min":0,"x_max":0,"o":"m 313 832 b 344 868 328 839 338 853 b 350 965 351 883 350 949 b 329 1018 350 985 343 1006 b 282 1039 315 1032 299 1039 b 211 965 246 1039 213 1008 b 211 881 211 953 208 892 b 278 822 217 846 244 825 b 313 832 290 822 303 826 z m 168 869 b 169 958 172 885 171 943 b 101 1015 167 990 133 1015 b 33 958 71 1015 40 994 b 33 882 31 947 33 894 b 101 825 36 851 71 825 b 168 869 131 825 157 842 z "},"#":{"ha":1064,"x_min":0,"x_max":0,"o":"m 446 526 b 674 536 522 531 597 533 b 613 361 653 478 632 419 b 381 353 535 358 458 356 b 446 526 403 411 424 468 z m 654 54 b 711 226 672 111 692 169 b 783 229 736 226 760 226 b 840 308 822 232 844 269 b 761 367 836 350 799 367 b 821 538 781 424 801 481 b 963 528 868 538 915 532 b 1003 540 976 526 992 532 b 988 663 1049 572 1040 643 b 867 675 969 669 886 675 b 908 800 872 692 904 785 b 907 832 911 811 910 822 b 840 883 899 864 869 883 b 769 825 803 883 782 857 b 721 676 753 775 738 725 b 499 668 647 675 572 672 b 543 808 507 690 543 785 b 472 878 543 851 508 878 b 403 813 432 878 410 849 b 347 660 397 790 356 681 b 265 656 321 658 293 657 b 256 658 264 656 257 658 b 193 643 235 664 211 654 b 172 614 183 636 178 624 b 171 565 165 599 167 581 b 229 519 181 539 203 525 b 294 518 239 517 283 518 b 231 346 274 461 251 403 b 144 344 203 344 174 343 b 107 356 133 353 119 356 b 39 299 75 356 44 333 b 63 228 35 274 44 244 b 101 211 74 219 88 214 b 181 206 126 204 154 204 b 149 111 176 192 151 125 b 218 29 139 61 179 29 b 282 76 244 29 271 44 b 331 211 299 121 314 167 b 563 221 408 214 486 218 b 519 89 557 203 524 107 b 525 47 518 75 519 60 b 589 7 538 19 563 7 b 654 54 617 7 644 22 z "},"$":{"ha":638,"x_min":0,"x_max":0,"o":"m 376 -10 b 368 68 376 1 368 58 b 511 167 432 67 490 107 b 507 306 525 210 522 261 b 424 453 490 360 460 408 b 282 619 376 508 322 558 b 243 701 265 644 250 671 b 243 747 240 717 239 732 b 325 807 251 785 289 807 b 406 785 353 807 381 797 b 435 767 417 781 426 775 b 460 733 444 757 451 744 b 522 700 476 714 496 700 b 590 775 561 700 594 733 b 572 817 589 790 583 806 b 553 840 565 824 560 832 b 389 938 517 893 450 924 b 382 974 386 950 383 961 b 385 985 382 978 383 981 b 315 1065 393 1031 356 1065 b 243 1008 281 1065 250 1042 b 247 933 239 983 243 958 b 125 826 197 915 150 875 b 107 676 101 781 96 729 b 171 536 118 626 142 579 b 306 376 210 479 260 429 b 381 235 340 335 376 288 b 374 207 382 224 385 208 b 285 243 353 207 301 233 b 156 322 242 268 199 294 b 122 332 144 329 133 332 b 53 275 92 332 63 308 b 61 228 49 260 54 242 b 86 203 65 217 75 210 b 232 114 104 189 211 125 l 232 113 b 247 -43 225 82 233 -14 b 278 -72 253 -56 265 -65 b 307 -79 288 -76 297 -79 b 376 -10 343 -79 376 -50 z "},"%":{"ha":728,"x_min":0,"x_max":0,"o":"m 158 111 b 464 506 256 246 357 378 b 685 754 535 590 606 676 b 701 799 696 765 700 783 b 629 868 706 839 669 868 b 575 842 606 868 592 858 b 485 744 544 811 514 778 b 46 190 331 568 181 383 b 39 132 35 174 35 150 b 106 85 47 101 76 85 b 158 111 125 85 146 93 z m 482 179 b 467 315 560 203 547 308 b 439 311 457 317 449 313 b 453 172 354 296 367 172 b 482 179 463 172 472 175 z m 253 642 b 279 736 288 657 296 701 b 218 771 268 760 244 771 b 182 763 206 771 193 768 b 161 657 142 743 136 693 b 215 632 172 643 197 632 b 253 642 228 632 242 636 z "},"&":{"ha":785,"x_min":0,"x_max":0,"o":"m 271 313 b 358 214 299 278 328 244 b 185 131 310 172 249 132 b 271 313 193 188 240 267 z m 333 751 b 497 869 364 810 428 869 b 300 568 497 796 351 626 b 333 751 292 631 304 696 z m 699 -24 b 682 114 758 11 749 101 b 671 115 678 114 674 113 l 558 215 b 696 392 585 243 683 357 b 629 486 714 442 674 486 b 586 469 615 486 600 481 b 553 425 572 457 564 439 b 457 311 524 385 490 347 b 361 425 422 347 389 385 b 572 693 435 513 511 597 b 635 844 603 739 628 790 b 626 928 638 872 638 901 b 496 1008 604 985 553 1008 b 221 836 382 1008 279 931 b 194 442 150 719 140 569 b 76 247 147 382 107 317 b 47 101 57 201 40 150 b 189 -8 57 29 121 -8 b 460 118 293 -8 386 50 b 597 -6 506 76 551 36 b 660 -33 617 -21 635 -33 b 699 -24 674 -33 688 -31 z "},"'":{"ha":211,"x_min":0,"x_max":0,"o":"m 176 853 b 174 906 179 871 175 888 b 174 942 174 918 176 929 b 107 1000 168 981 138 1000 b 38 940 76 1000 44 979 b 39 854 32 913 36 882 b 90 799 42 829 65 804 b 176 853 129 788 169 814 z "},"‛":{"ha":211,"x_min":0,"x_max":0,"o":"m 176 853 b 174 906 179 871 175 888 b 174 942 174 918 176 929 b 107 1000 168 981 138 1000 b 38 940 76 1000 44 979 b 39 854 32 913 36 882 b 90 799 42 829 65 804 b 176 853 129 788 169 814 z "},"(":{"ha":403,"x_min":0,"x_max":0,"o":"m 460 -164 b 469 -65 490 -142 492 -97 b 432 -42 461 -54 446 -47 b 207 449 268 17 210 294 b 256 778 204 560 219 672 b 390 1003 285 860 329 940 b 407 1035 399 1011 403 1024 b 399 1082 410 1050 406 1068 b 340 1117 388 1106 364 1117 b 260 1065 303 1117 282 1093 b 103 753 182 978 133 865 b 72 368 69 628 61 496 b 310 -132 89 194 157 -28 b 403 -178 338 -151 369 -169 b 460 -164 421 -183 443 -175 z "},")":{"ha":424,"x_min":0,"x_max":0,"o":"m 164 -128 b 319 185 242 -40 290 72 b 351 569 353 310 363 442 b 21 1115 333 771 238 1051 b -36 1100 1 1119 -19 1111 b -46 1003 -67 1079 -68 1035 b -8 979 -37 990 -22 985 b 171 754 79 947 140 836 b 217 490 200 669 215 579 b 140 92 219 356 196 215 b 33 -65 115 33 78 -21 b 17 -97 25 -74 21 -86 b 25 -144 13 -112 18 -131 b 83 -179 35 -168 58 -179 b 164 -128 121 -179 140 -156 z "},"*":{"ha":347,"x_min":0,"x_max":0,"o":"m 196 754 b 197 774 196 760 196 767 b 231 753 206 763 215 753 b 265 793 251 753 269 771 b 240 829 263 808 250 818 b 294 842 250 831 286 836 b 289 904 319 856 317 893 b 250 901 276 908 263 904 b 278 924 260 907 272 913 b 249 976 292 947 274 976 b 200 951 233 976 211 960 b 175 963 193 958 185 963 b 151 951 167 963 158 958 b 131 958 144 956 138 958 b 93 918 110 958 93 942 b 108 881 93 904 101 892 b 93 879 110 881 94 878 b 76 883 88 882 82 883 b 44 822 47 883 24 847 b 92 808 54 808 75 807 b 67 771 88 803 68 778 b 99 724 57 744 78 724 b 125 736 108 724 118 728 b 129 740 128 739 128 743 b 161 719 136 725 149 719 b 196 754 179 719 196 732 z "},"+":{"ha":631,"x_min":0,"x_max":0,"o":"m 407 292 b 408 338 414 306 411 324 b 410 447 404 354 410 431 b 547 463 456 449 503 450 b 592 511 569 468 586 490 b 538 596 603 550 576 589 b 524 597 533 597 528 597 b 476 590 508 597 493 593 b 418 586 457 588 438 586 b 426 669 419 614 417 643 b 358 768 443 715 407 768 b 292 718 328 768 301 747 b 279 583 285 699 281 603 b 138 586 258 582 157 582 b 94 589 124 588 108 590 b 40 497 51 585 29 539 b 81 456 46 479 64 464 b 271 444 111 442 238 443 b 271 319 269 403 267 361 b 340 249 274 281 300 249 b 407 292 367 249 394 264 z "},",":{"ha":204,"x_min":0,"x_max":0,"o":"m 142 -47 b 151 133 172 0 189 90 b 104 154 138 147 121 154 b 39 114 78 154 53 139 b 104 8 14 65 49 11 b 117 7 108 8 113 8 b 121 -10 124 4 124 -4 b 92 -60 114 -28 99 -42 b 92 -72 90 -64 89 -69 b 104 -78 96 -76 100 -78 b 142 -47 117 -78 132 -62 z "},"-":{"ha":397,"x_min":0,"x_max":0,"o":"m 310 443 b 347 463 324 444 338 453 b 297 581 392 507 360 583 b 161 575 276 579 208 575 b 117 578 142 575 125 575 b 50 557 94 583 67 574 b 65 449 18 525 26 471 b 121 436 82 439 101 436 b 310 443 146 436 285 442 z "},".":{"ha":204,"x_min":0,"x_max":0,"o":"m 140 18 b 158 128 181 38 183 90 b 86 150 143 147 111 157 b 40 44 40 138 17 86 b 104 10 54 22 79 10 b 140 18 117 10 129 13 z "},"/":{"ha":582,"x_min":0,"x_max":0,"o":"m 181 74 b 178 86 179 76 176 83 b 351 483 196 139 329 431 b 518 878 372 533 493 829 b 557 943 529 901 540 924 b 508 1058 596 989 565 1058 b 460 1042 492 1058 471 1053 b 385 921 426 1008 406 964 b 226 546 364 875 247 593 b 72 197 176 429 124 314 b 32 72 56 157 36 117 b 110 -10 28 28 65 -8 b 181 74 154 -10 192 31 z "},":":{"ha":239,"x_min":0,"x_max":0,"o":"m 189 564 b 194 631 201 582 203 610 b 129 676 183 661 157 676 b 76 654 111 676 92 669 b 58 585 58 635 51 610 b 128 533 67 551 97 533 b 189 564 150 533 174 543 z m 150 18 b 168 128 190 38 193 90 b 96 150 153 147 121 157 b 50 44 50 138 26 86 b 114 10 64 22 89 10 b 150 18 126 10 139 13 z "},";":{"ha":242,"x_min":0,"x_max":0,"o":"m 189 564 b 196 631 203 582 203 610 b 131 676 185 661 158 676 b 78 654 113 676 93 669 b 60 585 60 635 53 610 b 129 533 68 551 99 533 b 189 564 151 533 174 543 z m 153 -47 b 163 133 183 0 200 90 b 115 154 149 147 132 154 b 50 114 89 154 64 139 b 115 8 25 65 60 11 b 128 7 119 8 124 8 b 132 -10 135 4 135 -4 b 103 -60 125 -28 110 -42 b 103 -72 101 -64 100 -69 b 115 -78 107 -76 111 -78 b 153 -47 128 -78 143 -62 z "},"<":{"ha":535,"x_min":0,"x_max":0,"o":"m 447 219 b 440 349 504 246 500 329 b 386 371 422 354 404 363 b 194 483 358 385 219 465 b 356 600 243 529 299 565 b 457 669 392 619 431 639 b 404 783 496 717 458 783 b 379 779 396 783 388 782 b 326 743 371 776 335 749 b 201 665 285 718 242 693 b 42 479 146 628 42 556 b 136 356 42 422 93 383 b 406 214 203 313 328 235 b 447 219 419 211 435 214 z "},"=":{"ha":600,"x_min":0,"x_max":0,"o":"m 150 615 b 160 618 154 615 157 618 b 483 643 200 622 444 639 b 525 667 500 644 514 656 b 471 781 567 707 529 785 b 103 753 349 772 225 764 b 49 649 53 749 22 692 b 124 611 63 625 94 611 b 150 615 132 611 142 613 z m 192 374 b 418 399 267 379 343 392 b 500 403 446 401 472 400 b 557 482 538 406 560 443 b 475 542 553 524 511 542 b 304 525 425 542 332 528 b 182 511 263 519 222 514 b 167 513 179 511 169 513 b 118 390 101 513 71 438 b 192 374 136 372 167 372 z "},">":{"ha":517,"x_min":0,"x_max":0,"o":"m 178 257 b 308 369 217 299 261 336 b 447 478 356 404 406 436 b 451 615 486 517 490 578 b 413 650 440 628 426 640 b 226 767 353 692 290 731 b 161 804 217 792 186 804 b 106 683 103 804 63 733 b 139 658 114 674 126 665 b 317 547 199 624 258 588 b 165 435 267 510 214 475 b 61 335 128 404 93 369 b 44 290 50 322 46 306 b 60 246 43 275 51 258 b 89 225 67 236 78 229 b 113 221 97 222 104 221 b 178 257 146 221 157 233 z "},"?":{"ha":586,"x_min":0,"x_max":0,"o":"m 286 257 b 289 304 290 272 289 289 b 332 413 289 343 307 382 b 443 535 344 429 429 519 b 542 707 488 585 528 643 b 386 956 564 815 492 926 b 321 964 365 961 343 964 b 94 863 238 964 147 929 b 44 764 71 835 47 800 b 117 694 40 724 76 694 b 167 717 138 694 153 703 b 183 749 175 725 178 739 b 319 825 211 797 264 825 b 374 810 339 825 358 822 b 404 765 389 800 400 783 b 399 715 410 750 406 731 b 358 651 390 692 375 671 b 215 489 314 594 260 546 b 151 269 168 429 146 346 b 219 213 157 238 188 213 b 286 257 249 213 276 229 z m 279 19 b 299 85 294 36 300 63 b 225 143 294 121 261 143 b 161 90 196 143 171 117 b 226 -3 143 38 182 -3 b 279 19 244 -3 263 4 z "},"@":{"ha":1040,"x_min":0,"x_max":0,"o":"m 553 560 b 564 557 554 561 564 558 b 464 383 531 499 504 436 b 553 560 474 449 507 513 z m 586 15 b 524 114 608 63 572 114 b 500 110 517 114 508 113 b 460 103 488 106 474 103 b 293 156 407 103 333 126 b 228 240 264 176 242 207 b 203 469 199 311 193 393 b 250 625 208 524 222 578 b 639 846 328 751 489 846 b 851 672 746 846 842 790 b 792 476 858 604 831 533 b 742 422 778 457 763 436 b 719 465 729 432 724 450 b 701 553 717 476 706 542 b 653 599 693 576 675 593 b 654 611 649 600 653 607 b 651 646 657 622 654 635 b 611 689 646 665 628 681 b 542 703 599 693 554 703 b 417 614 486 703 447 654 b 324 324 356 533 314 425 b 354 240 326 294 336 264 b 435 203 374 218 406 203 b 528 249 469 203 506 224 b 615 360 561 281 590 319 b 743 282 643 315 689 282 b 974 538 856 282 944 447 b 986 710 990 593 996 653 b 636 983 961 888 806 983 b 104 642 425 983 189 840 b 61 358 67 554 54 454 b 189 61 71 250 103 135 b 457 -35 261 1 363 -35 b 586 15 500 -35 568 -31 z "},"A":{"ha":672,"x_min":0,"x_max":0,"o":"m 354 626 b 383 731 364 661 372 696 b 451 333 400 597 428 465 b 265 317 389 328 328 322 b 354 626 300 418 326 522 z m 144 14 b 215 178 169 68 193 122 b 254 176 228 175 242 175 b 476 196 328 182 401 190 b 499 38 485 143 493 90 b 567 -21 503 1 535 -21 b 621 4 586 -21 606 -12 b 636 49 631 17 635 32 b 631 99 638 56 632 92 b 610 239 625 146 618 192 b 528 703 600 297 535 644 b 508 833 521 747 517 790 b 406 957 499 889 472 957 b 225 678 296 957 246 761 b 14 64 168 465 110 264 b 39 -17 3 38 15 0 b 79 -29 51 -25 65 -29 b 144 14 106 -29 132 -14 z "},"Å":{"ha":672,"x_min":0,"x_max":0,"o":"m 354 626 b 383 731 364 661 372 696 b 451 333 400 597 428 465 b 265 317 389 328 328 322 b 354 626 300 418 326 522 z m 144 14 b 215 178 169 68 193 122 b 254 176 228 175 242 175 b 476 196 328 182 401 190 b 499 38 485 143 493 90 b 567 -21 503 1 535 -21 b 621 4 586 -21 606 -12 b 636 49 631 17 635 32 b 631 99 638 56 632 92 b 610 239 625 146 618 192 b 528 703 600 297 535 644 b 508 833 521 747 517 790 b 406 957 499 889 472 957 b 225 678 296 957 246 761 b 14 64 168 465 110 264 b 39 -17 3 38 15 0 b 79 -29 51 -25 65 -29 b 144 14 106 -29 132 -14 z "},"B":{"ha":697,"x_min":0,"x_max":0,"o":"m 208 139 b 219 468 204 249 213 358 b 281 469 239 463 260 469 b 522 347 361 469 499 440 b 511 283 526 326 522 301 b 379 165 483 231 433 189 b 208 139 325 143 265 136 z m 242 858 b 419 835 301 863 367 863 b 436 824 425 832 431 828 b 443 803 442 818 443 810 b 429 733 446 779 440 754 b 228 604 386 657 311 621 b 242 858 232 689 236 774 z m 397 24 b 660 364 540 71 688 217 b 475 572 643 461 563 536 b 581 760 529 621 572 689 b 571 863 583 794 583 831 b 297 1000 536 965 396 1000 b 144 986 269 1000 167 999 b 111 939 128 976 117 958 b 90 617 99 893 92 665 b 68 229 83 488 71 358 b 79 44 68 197 67 74 b 158 1 92 15 126 -7 b 219 -1 178 6 199 -1 b 397 24 279 -1 340 6 z "},"C":{"ha":644,"x_min":0,"x_max":0,"o":"m 592 125 b 625 182 606 142 615 163 b 585 272 640 217 619 256 b 564 276 579 275 572 276 b 507 253 540 276 525 268 b 493 228 501 246 497 236 b 339 121 472 186 392 121 b 188 317 239 121 192 232 b 258 692 181 444 200 579 b 351 806 281 736 310 779 b 376 815 360 810 367 815 b 396 810 383 817 390 814 b 429 797 407 806 418 800 b 475 804 444 793 461 799 b 475 926 524 828 524 904 b 436 946 469 929 442 943 b 381 954 418 951 400 954 b 82 617 221 954 117 750 b 47 333 57 525 46 428 b 100 126 49 263 64 188 b 342 -18 150 44 244 -18 b 592 125 440 -18 531 53 z "},"D":{"ha":688,"x_min":0,"x_max":0,"o":"m 224 503 b 239 844 228 617 226 731 b 494 647 360 840 468 771 b 478 369 514 556 508 457 b 204 140 428 240 342 157 b 224 503 203 261 218 382 z m 451 97 b 594 288 514 147 561 215 b 629 678 647 407 658 550 b 229 983 588 867 419 983 b 147 974 208 983 165 982 b 103 907 122 964 100 935 b 101 868 103 894 103 881 b 82 440 88 726 89 583 b 72 81 78 383 57 136 b 186 0 88 21 128 0 b 451 97 279 0 379 42 z "},"E":{"ha":540,"x_min":0,"x_max":0,"o":"m 485 14 b 438 142 553 53 514 156 b 247 124 374 131 311 118 b 222 128 242 124 226 125 b 213 157 217 132 214 151 b 210 413 199 242 204 328 b 344 425 232 413 324 417 b 333 558 411 449 403 546 b 321 560 329 560 325 560 b 290 556 310 560 300 557 b 221 551 267 554 244 553 b 243 865 225 590 239 826 b 381 869 289 869 335 875 b 424 865 396 868 410 867 b 458 874 436 864 449 869 b 490 910 474 881 483 896 b 450 1000 506 944 485 983 b 342 1011 431 1007 367 1011 b 226 1003 303 1011 264 1006 b 206 1010 224 1003 208 1010 b 147 996 186 1015 163 1008 b 117 949 133 983 124 965 b 94 726 103 915 97 763 b 68 353 88 601 74 476 b 76 132 64 279 63 204 b 268 -17 96 21 164 -17 b 485 14 318 -17 454 -4 z "},"F":{"ha":463,"x_min":0,"x_max":0,"o":"m 219 60 b 224 451 224 111 224 400 b 329 456 238 454 315 453 b 315 593 414 469 401 593 b 222 590 285 593 254 593 b 219 846 221 676 215 761 b 376 844 272 846 324 844 b 426 864 396 844 413 851 b 376 983 471 908 439 982 b 169 985 351 983 194 985 l 165 986 b 83 917 122 994 83 961 b 79 813 83 882 81 847 b 85 575 78 733 83 654 b 81 61 86 510 83 128 b 150 -8 79 18 114 -8 b 219 60 194 -8 215 21 z "},"G":{"ha":660,"x_min":0,"x_max":0,"o":"m 578 168 b 628 382 608 235 624 308 b 626 397 628 383 626 394 b 629 406 626 399 629 404 b 572 486 636 444 610 481 b 414 465 547 492 439 469 b 396 467 411 465 399 467 b 332 426 371 469 342 449 b 382 329 313 385 338 339 b 410 326 390 328 400 326 b 483 336 433 326 458 332 b 375 138 472 263 444 176 b 321 125 358 128 339 124 b 265 149 300 128 281 136 b 186 336 204 193 189 265 b 233 633 185 436 199 539 b 343 799 256 694 290 758 b 389 815 353 806 378 818 b 418 800 393 814 414 803 b 453 797 428 796 442 796 b 494 819 469 799 483 808 b 478 925 525 850 513 900 b 394 953 454 942 424 951 b 281 924 356 957 314 944 b 51 435 126 829 67 603 b 71 193 44 354 44 269 b 329 -14 106 83 210 -14 b 578 168 443 -14 532 71 z "},"H":{"ha":674,"x_min":0,"x_max":0,"o":"m 208 29 b 218 64 214 40 217 51 b 215 92 218 67 215 88 b 219 408 214 132 218 368 b 446 411 294 406 369 404 b 443 72 444 369 443 114 b 513 1 443 25 478 1 b 582 72 547 1 582 25 b 588 526 582 129 585 469 b 603 769 592 608 599 689 b 604 931 604 792 607 908 b 536 992 601 963 568 992 b 467 932 503 992 469 968 b 464 786 465 913 465 804 b 450 551 461 707 454 629 b 219 547 415 544 254 546 b 235 886 219 660 225 774 b 242 906 235 889 240 903 b 211 975 246 932 235 958 b 174 986 200 983 188 986 b 101 929 143 986 111 964 b 83 700 93 897 85 735 b 78 217 81 640 79 276 b 83 40 76 188 74 68 b 149 -6 94 10 121 -6 b 208 29 171 -6 194 6 z "},"I":{"ha":375,"x_min":0,"x_max":0,"o":"m 276 -22 b 331 68 319 -18 342 26 b 290 111 326 88 308 103 b 249 114 278 117 263 115 b 261 633 254 288 258 460 b 265 869 261 663 265 840 b 288 1003 342 875 357 971 b 225 1011 278 1008 236 1011 b 131 1007 193 1010 161 1001 b 49 924 82 1015 43 972 b 126 864 51 886 90 863 b 110 106 124 772 113 197 b 96 -32 24 106 13 -15 b 276 -22 125 -37 249 -26 z "},"J":{"ha":719,"x_min":0,"x_max":0,"o":"m 576 225 b 596 508 594 318 593 414 b 607 881 597 554 604 835 b 700 939 653 883 686 888 b 631 1021 711 979 672 1024 b 376 1006 596 1019 431 1006 b 365 1006 372 1006 368 1006 b 296 954 336 1008 303 983 b 354 867 285 913 313 872 b 371 865 357 867 363 865 b 467 871 400 865 453 869 b 449 315 464 800 456 385 b 322 139 440 228 428 139 b 193 244 257 139 218 189 b 151 368 175 285 164 326 b 85 415 142 396 114 415 b 21 321 40 415 6 369 b 322 -1 67 165 135 -1 b 576 225 465 -1 550 90 z "},"K":{"ha":675,"x_min":0,"x_max":0,"o":"m 183 8 b 207 49 196 18 203 33 b 208 90 208 56 208 83 b 213 336 210 172 210 254 b 529 49 251 301 489 83 b 579 29 544 35 561 29 b 647 93 613 29 643 53 b 622 151 649 115 640 136 b 288 456 579 188 331 417 b 626 829 403 578 517 701 b 643 881 639 843 644 861 b 575 943 639 919 608 943 b 519 918 556 943 535 936 b 226 593 425 807 325 700 b 240 888 228 629 238 850 b 243 954 253 908 254 931 b 181 994 231 982 206 994 b 110 942 151 994 121 976 b 92 697 97 906 94 735 b 74 321 90 650 75 367 b 71 51 72 285 67 88 b 142 -7 74 17 107 -7 b 183 8 157 -7 171 0 z "},"L":{"ha":639,"x_min":0,"x_max":0,"o":"m 422 26 b 588 57 444 31 565 51 b 633 118 611 64 631 93 b 576 192 636 153 611 185 b 569 192 575 192 572 192 b 432 169 536 192 454 174 b 282 151 404 164 333 151 b 238 158 263 151 247 154 b 206 338 208 172 206 308 b 219 644 206 440 213 542 b 246 899 226 729 232 814 b 251 925 247 907 250 915 b 183 994 254 963 221 992 b 179 994 182 994 181 994 b 111 931 140 994 119 965 b 79 625 99 889 83 669 b 69 269 72 507 63 388 b 285 14 76 115 117 14 b 422 26 331 14 378 21 z "},"M":{"ha":910,"x_min":0,"x_max":0,"o":"m 211 53 b 211 211 207 76 210 188 b 233 732 214 385 219 558 b 386 378 292 618 340 499 b 453 332 397 347 425 332 b 513 368 476 332 500 343 b 683 674 567 471 624 574 b 697 88 676 478 681 282 b 711 22 699 65 699 40 b 771 -11 726 0 750 -11 b 840 57 806 -11 838 14 b 836 88 842 67 836 78 b 828 781 817 318 814 550 b 832 861 829 808 832 835 b 754 967 832 914 821 967 b 718 958 743 967 731 964 b 578 767 676 939 601 807 b 461 565 538 700 499 632 b 236 975 422 661 301 935 b 196 986 224 982 210 986 b 106 846 122 986 110 903 b 75 368 86 688 81 528 b 74 33 74 321 67 79 b 144 -28 78 -3 110 -28 b 211 53 185 -28 219 10 z "},"N":{"ha":721,"x_min":0,"x_max":0,"o":"m 210 42 b 221 629 226 236 218 433 b 451 86 303 451 375 268 b 553 -15 471 42 497 -15 b 638 85 610 -15 632 36 b 642 246 642 138 642 192 b 639 613 642 368 640 490 b 644 897 639 708 636 803 b 629 942 646 913 638 929 b 576 968 617 960 596 968 b 510 921 547 968 518 951 b 501 843 503 896 503 869 b 503 325 496 671 501 499 b 233 918 419 526 335 726 b 167 958 219 944 193 958 b 89 839 97 958 92 890 b 72 57 71 579 93 317 b 140 -19 69 13 103 -19 b 210 42 175 -19 207 7 z "},"O":{"ha":703,"x_min":0,"x_max":0,"o":"m 317 128 b 188 439 225 174 192 350 b 240 728 185 536 199 639 b 360 840 265 783 311 840 b 481 706 419 840 464 751 b 496 326 524 586 526 449 b 350 121 482 265 428 126 b 317 128 339 119 326 122 z m 606 215 b 651 569 649 326 663 451 b 358 972 635 729 554 972 b 86 711 215 972 124 833 b 63 321 46 588 39 449 b 342 -12 89 183 176 -12 b 606 215 474 -12 561 104 z "},"Ø":{"ha":703,"x_min":0,"x_max":0,"o":"m 317 128 b 188 439 225 174 192 350 b 240 728 185 536 199 639 b 360 840 265 783 311 840 b 481 706 419 840 464 751 b 496 326 524 586 526 449 b 350 121 482 265 428 126 b 317 128 339 119 326 122 z m 606 215 b 651 569 649 326 663 451 b 358 972 635 729 554 972 b 86 711 215 972 124 833 b 63 321 46 588 39 449 b 342 -12 89 183 176 -12 b 606 215 474 -12 561 104 z "},"P":{"ha":617,"x_min":0,"x_max":0,"o":"m 224 869 b 306 875 250 875 278 875 b 451 747 396 875 447 842 b 389 571 454 685 432 615 b 219 494 344 526 281 501 b 224 869 219 619 213 744 z m 218 81 b 221 356 219 172 221 264 b 561 586 368 365 504 449 b 578 835 593 663 599 753 b 304 1015 542 961 426 1015 b 211 1008 274 1015 242 1013 b 106 961 181 1008 125 985 b 90 925 97 950 93 938 b 81 792 85 906 81 811 b 82 350 79 736 82 406 b 79 79 82 260 81 169 b 149 10 79 43 111 10 b 218 81 183 10 217 38 z "},"Q":{"ha":715,"x_min":0,"x_max":0,"o":"m 317 128 b 188 439 225 174 192 350 b 240 728 185 536 199 639 b 360 840 265 783 311 840 b 481 706 419 840 464 751 b 468 243 532 561 529 385 b 464 246 467 243 464 246 b 451 269 460 253 457 263 b 388 296 439 288 413 296 b 350 289 375 296 361 293 b 333 179 311 269 303 211 b 382 132 350 163 367 147 b 350 121 372 126 361 121 b 317 128 339 119 326 122 z m 650 -81 b 665 8 676 -62 683 -18 b 568 138 635 53 601 96 b 625 276 593 181 613 228 b 650 572 653 372 660 474 b 358 972 636 731 551 972 b 86 711 215 972 124 833 b 63 321 46 588 39 449 b 339 -12 90 171 169 1 b 347 -12 342 -12 344 -12 b 475 32 392 -12 438 7 b 553 -72 501 -1 526 -36 b 601 -96 565 -89 583 -96 b 650 -81 618 -96 635 -90 z "},"R":{"ha":636,"x_min":0,"x_max":0,"o":"m 224 869 b 306 875 250 875 278 875 b 451 747 396 875 447 842 b 389 571 454 685 432 615 b 219 494 344 526 281 501 b 224 869 219 619 213 744 z m 563 124 b 332 378 485 208 408 293 b 499 486 394 400 456 436 b 578 835 581 581 610 711 b 304 1015 542 961 426 1015 b 211 1008 274 1015 242 1013 b 106 961 181 1008 125 985 b 90 925 97 950 93 938 b 81 792 85 906 81 811 b 82 350 79 736 82 406 b 79 79 82 260 81 169 b 149 10 79 43 111 10 b 218 81 183 10 217 38 b 221 294 219 151 221 222 b 464 25 251 260 432 58 b 511 8 476 15 496 8 b 563 124 567 8 603 79 z "},"S":{"ha":668,"x_min":0,"x_max":0,"o":"m 603 140 b 606 261 615 178 615 222 b 540 381 596 306 571 346 b 369 517 492 433 429 474 b 253 635 325 549 278 586 b 236 714 240 658 232 688 b 397 840 251 790 322 840 b 436 833 411 840 424 839 b 474 726 467 819 475 760 b 464 694 474 715 468 706 b 458 644 458 679 456 661 b 526 588 465 608 496 588 b 586 622 550 588 572 599 b 613 736 603 644 613 710 b 569 893 614 790 599 847 b 393 979 526 956 467 979 b 96 692 239 979 96 847 b 249 435 96 589 169 494 b 372 344 289 403 332 375 b 453 268 403 322 432 299 b 457 163 474 238 483 188 b 343 128 426 135 382 128 b 254 143 313 128 282 132 b 158 206 229 150 172 183 b 93 244 140 232 126 244 b 53 229 78 244 64 238 b 28 189 39 221 32 204 b 32 147 24 175 28 161 b 150 36 42 113 118 53 b 342 -11 210 6 275 -11 b 603 140 451 -11 564 29 z "},"T":{"ha":575,"x_min":0,"x_max":0,"o":"m 378 78 b 376 311 378 156 375 233 b 383 706 376 360 383 658 b 388 847 385 753 383 801 b 493 854 403 849 478 857 b 504 853 497 853 501 853 b 567 893 531 853 556 869 b 493 994 592 944 550 997 b 61 965 440 990 114 971 b 24 947 47 965 33 957 b 74 828 -21 903 11 825 b 247 839 132 831 189 836 b 244 635 246 814 244 661 b 236 257 242 508 236 383 b 239 78 238 197 239 138 b 308 7 239 39 268 7 b 378 78 343 7 378 35 z "},"U":{"ha":722,"x_min":0,"x_max":0,"o":"m 590 210 b 651 479 624 296 640 388 b 664 821 664 593 668 707 b 660 922 663 833 661 908 b 590 981 656 954 621 981 b 522 922 558 981 528 956 b 526 754 518 899 526 778 b 490 361 529 622 519 489 b 369 135 475 286 442 175 b 332 121 358 128 347 121 b 251 207 297 121 265 174 b 208 392 226 265 215 328 b 207 663 200 481 201 572 b 226 901 211 742 217 822 b 232 929 228 911 232 919 b 163 1000 236 968 201 996 b 158 1000 161 1000 160 1000 b 92 933 124 1000 96 968 b 72 733 82 867 76 800 b 108 192 60 553 54 364 b 333 -18 142 90 217 -18 b 590 210 449 -18 547 93 z "},"V":{"ha":774,"x_min":0,"x_max":0,"o":"m 408 6 b 431 36 419 13 425 25 b 588 426 483 167 536 296 b 760 918 618 503 753 836 b 749 958 761 932 756 946 b 692 988 735 978 713 988 b 631 953 668 988 644 976 b 618 908 624 940 622 924 b 535 675 594 829 565 753 b 371 258 482 535 426 396 b 175 864 304 460 235 660 b 154 944 167 890 157 917 b 88 1003 154 978 117 1003 b 17 928 49 1003 13 972 b 114 592 21 875 99 642 b 299 36 175 407 236 221 b 364 -10 308 8 335 -10 b 408 6 379 -11 396 -4 z "},"W":{"ha":1150,"x_min":0,"x_max":0,"o":"m 431 32 b 576 429 481 164 531 296 b 726 24 594 375 701 75 b 786 -12 736 1 763 -12 b 851 35 814 -12 842 6 b 1132 906 892 150 1104 786 b 1125 965 1136 925 1135 947 b 1065 1000 1111 988 1089 1000 b 996 942 1033 1000 999 975 b 929 710 993 906 940 744 b 783 264 882 561 832 413 b 656 635 738 386 692 508 b 643 689 651 653 649 671 b 579 735 638 715 606 735 b 504 674 543 735 511 710 b 368 261 494 611 390 319 b 175 860 301 460 235 658 b 154 940 167 886 157 913 b 86 997 154 972 115 997 b 17 922 49 997 13 967 b 114 588 21 871 99 638 b 299 32 175 401 236 217 b 364 -14 310 1 336 -14 b 431 32 392 -14 418 1 z "},"X":{"ha":793,"x_min":0,"x_max":0,"o":"m 169 38 b 408 354 253 140 332 247 b 608 29 478 247 546 140 b 650 -4 618 13 632 1 b 728 99 711 -19 760 44 b 494 476 656 228 575 353 b 761 869 585 607 672 739 b 771 904 768 879 769 892 b 756 949 772 919 764 936 b 704 974 746 963 722 974 b 679 971 696 974 688 972 b 640 939 663 965 650 951 b 413 601 565 826 490 714 b 190 953 338 718 260 833 b 129 989 176 976 153 989 b 63 938 100 989 72 971 b 69 883 57 918 60 900 b 328 479 150 746 240 613 b 53 114 239 354 149 232 b 72 -15 -4 81 10 1 b 88 -17 76 -17 82 -17 b 169 38 128 -17 147 7 z "},"Y":{"ha":758,"x_min":0,"x_max":0,"o":"m 425 39 b 429 75 431 50 429 63 b 431 381 428 176 426 279 b 660 715 511 489 590 600 b 718 821 681 750 701 785 b 750 918 733 851 747 883 b 738 958 751 932 746 946 b 681 988 724 978 703 988 b 621 953 657 988 633 976 b 610 919 614 943 613 931 b 553 806 596 879 574 842 b 376 540 499 715 439 626 b 207 826 319 635 261 731 b 144 944 196 846 149 924 b 75 1003 138 982 107 1003 b 7 918 24 1003 7 963 b 294 410 14 858 256 472 b 292 53 290 360 288 103 b 361 -7 296 22 329 -7 b 425 39 388 -7 413 13 z "},"Ý":{"ha":758,"x_min":0,"x_max":0,"o":"m 425 39 b 429 75 431 50 429 63 b 431 381 428 176 426 279 b 660 715 511 489 590 600 b 718 821 681 750 701 785 b 750 918 733 851 747 883 b 738 958 751 932 746 946 b 681 988 724 978 703 988 b 621 953 657 988 633 976 b 610 919 614 943 613 931 b 553 806 596 879 574 842 b 376 540 499 715 439 626 b 207 826 319 635 261 731 b 144 944 196 846 149 924 b 75 1003 138 982 107 1003 b 7 918 24 1003 7 963 b 294 410 14 858 256 472 b 292 53 290 360 288 103 b 361 -7 296 22 329 -7 b 425 39 388 -7 413 13 z "},"Z":{"ha":747,"x_min":0,"x_max":0,"o":"m 139 7 b 497 28 183 8 453 26 b 651 24 549 29 600 26 b 688 154 722 21 749 118 b 651 163 676 160 664 163 b 485 167 596 167 540 168 b 204 149 390 163 297 154 b 407 425 268 244 340 332 b 629 743 435 464 600 704 b 715 903 665 792 710 843 b 628 997 719 951 675 992 b 579 1001 611 1000 596 1001 b 474 994 544 1001 508 996 b 165 993 371 989 268 992 b 115 974 147 994 129 986 b 165 854 71 929 103 856 b 335 851 222 853 279 851 b 544 861 406 851 475 856 b 261 461 447 729 358 592 b 50 165 189 364 114 268 b 17 96 36 143 19 121 b 51 19 13 64 25 36 b 139 7 76 3 110 6 z "},"[":{"ha":442,"x_min":0,"x_max":0,"o":"m 283 -178 b 399 -165 322 -175 361 -169 b 422 -36 464 -157 479 -69 b 375 -28 408 -28 390 -26 b 242 -40 331 -33 286 -42 b 231 40 236 -14 233 13 b 235 865 208 314 215 590 b 238 894 236 875 236 885 b 394 906 289 904 342 901 b 411 1040 467 913 481 1015 b 372 1043 399 1044 386 1043 b 181 1021 308 1040 240 1043 b 100 911 124 1000 108 968 b 94 851 99 904 96 858 b 88 103 78 603 74 353 b 101 -51 90 51 93 0 b 185 -172 111 -104 129 -154 b 283 -178 217 -182 251 -181 z "},"\\":{"ha":531,"x_min":0,"x_max":0,"o":"m 510 -15 b 342 511 450 158 399 336 b 193 885 300 639 258 768 b 167 931 189 892 169 925 b 157 954 163 939 161 947 b 97 989 143 978 121 989 b 29 932 67 989 36 968 b 38 879 25 914 31 894 b 88 788 53 847 72 818 b 140 665 108 749 124 707 b 344 39 219 460 275 247 b 385 -76 350 22 376 -61 b 415 -104 392 -87 403 -97 b 444 -111 425 -108 435 -111 b 510 -15 490 -111 526 -64 z "},"]":{"ha":403,"x_min":0,"x_max":0,"o":"m 289 81 b 315 306 301 156 310 231 b 325 863 319 379 328 788 b 253 1013 325 924 315 986 b 136 1024 217 1026 175 1025 b 125 1029 135 1024 128 1028 b 104 1033 118 1032 111 1033 b 47 1008 83 1033 60 1024 b 86 889 14 968 36 904 b 185 885 118 881 153 888 b 188 850 186 874 188 861 b 179 365 188 789 181 426 b 104 -53 178 282 149 1 b 86 -60 101 -56 90 -58 b -4 -67 57 -65 25 -58 b -51 -131 -35 -74 -49 -103 b -36 -176 -53 -147 -44 -162 b 47 -203 -21 -197 13 -203 b 289 81 231 -203 261 -69 z "},"^":{"ha":464,"x_min":0,"x_max":0,"o":"m 133 667 b 165 696 146 674 160 683 b 200 740 174 714 186 728 b 275 694 225 725 249 707 b 365 671 300 682 338 671 b 401 683 378 671 390 676 b 396 800 443 713 440 775 b 347 814 382 810 364 808 b 268 861 318 825 294 847 b 196 881 246 872 221 881 b 38 747 133 881 53 804 b 104 661 25 700 63 661 b 133 667 114 661 124 663 z "},"_":{"ha":756,"x_min":0,"x_max":0,"o":"m 685 -28 b 69 -28 481 -28 275 -28 b 21 -49 51 -28 33 -35 b 71 -167 -24 -92 8 -167 b 685 -167 275 -167 481 -167 b 685 -28 779 -167 779 -28 z "},"`":{"ha":265,"x_min":0,"x_max":0,"o":"m 194 763 b 217 869 235 782 246 835 b 176 899 207 882 190 889 b 174 910 175 900 174 907 b 106 956 164 938 135 956 b 40 851 56 956 17 903 b 163 756 61 808 114 760 b 194 763 174 754 185 758 z "},"a":{"ha":553,"x_min":0,"x_max":0,"o":"m 203 161 b 185 264 165 179 165 228 b 274 325 201 293 239 325 b 363 193 329 325 354 236 b 358 189 363 192 360 190 b 247 153 335 168 288 153 b 203 161 231 153 215 156 z m 389 44 b 443 21 404 31 422 21 b 485 38 458 21 474 29 b 510 78 499 46 506 63 b 507 264 518 107 510 233 b 497 343 504 290 499 317 b 358 710 492 443 471 667 b 297 719 339 717 318 719 b 72 576 207 719 96 672 b 79 529 68 561 72 543 b 139 492 89 508 117 492 b 204 538 167 492 193 511 b 208 547 206 542 207 544 b 306 581 225 571 278 585 b 328 532 317 567 322 549 b 347 449 336 506 342 476 b 276 463 325 458 301 463 b 49 300 174 463 85 396 b 46 140 29 251 28 190 b 253 14 79 53 164 14 b 389 44 299 14 347 26 z "},"å":{"ha":553,"x_min":0,"x_max":0,"o":"m 203 161 b 185 264 165 179 165 228 b 274 325 201 293 239 325 b 363 193 329 325 354 236 b 358 189 363 192 360 190 b 247 153 335 168 288 153 b 203 161 231 153 215 156 z m 389 44 b 443 21 404 31 422 21 b 485 38 458 21 474 29 b 510 78 499 46 506 63 b 507 264 518 107 510 233 b 497 343 504 290 499 317 b 358 710 492 443 471 667 b 297 719 339 717 318 719 b 72 576 207 719 96 672 b 79 529 68 561 72 543 b 139 492 89 508 117 492 b 204 538 167 492 193 511 b 208 547 206 542 207 544 b 306 581 225 571 278 585 b 328 532 317 567 322 549 b 347 449 336 506 342 476 b 276 463 325 458 301 463 b 49 300 174 463 85 396 b 46 140 29 251 28 190 b 253 14 79 53 164 14 b 389 44 299 14 347 26 z "},"b":{"ha":661,"x_min":0,"x_max":0,"o":"m 225 171 b 371 538 251 286 293 444 b 424 574 382 549 407 574 b 463 524 442 572 457 542 b 481 308 485 456 492 379 b 318 133 464 221 421 133 b 225 171 283 133 249 146 z m 564 133 b 617 474 622 232 635 360 b 424 711 600 581 551 711 b 208 546 324 711 256 625 b 221 913 210 668 214 790 b 228 935 221 917 226 932 b 222 975 229 949 228 963 b 160 1015 210 1003 185 1015 b 82 917 99 1015 82 967 b 68 164 67 667 69 415 b 71 119 68 150 68 135 b 131 58 75 92 103 61 b 144 57 133 58 142 58 b 319 -6 192 15 256 -6 b 564 133 419 -6 511 46 z "},"c":{"ha":497,"x_min":0,"x_max":0,"o":"m 407 71 b 469 147 418 83 464 132 b 404 242 488 197 447 242 b 360 225 389 242 374 236 b 319 181 354 219 325 186 b 260 146 303 164 282 147 b 175 260 203 139 178 203 b 228 494 171 340 186 426 b 282 553 242 518 258 540 b 300 561 285 556 296 561 b 315 547 303 560 313 550 b 358 532 329 536 344 532 b 425 625 403 532 444 575 b 301 700 410 667 349 700 b 110 567 218 700 151 633 b 36 324 65 494 44 407 b 74 113 31 253 39 175 b 253 7 113 44 174 7 b 407 71 311 7 364 31 z "},"d":{"ha":663,"x_min":0,"x_max":0,"o":"m 176 379 b 221 564 175 422 190 533 b 260 579 232 574 246 579 b 400 447 315 579 376 488 b 454 319 411 426 451 343 b 454 201 457 304 454 218 b 403 146 454 185 417 153 b 344 133 385 138 365 133 b 176 379 213 133 176 272 z m 544 83 b 593 138 569 90 589 111 b 597 288 597 160 599 265 b 593 336 597 293 593 329 b 581 918 593 531 592 725 b 501 1017 578 968 563 1017 b 446 988 481 1017 460 1007 b 438 924 433 968 429 944 b 442 914 439 919 442 917 b 451 614 447 814 450 714 b 260 718 401 669 338 718 b 53 514 133 718 78 624 b 47 271 36 435 32 350 b 346 -6 79 118 179 -6 b 544 83 418 -6 497 26 z "},"e":{"ha":510,"x_min":0,"x_max":0,"o":"m 294 556 b 329 515 313 556 328 536 b 182 374 335 451 240 397 b 294 556 190 419 236 556 z m 407 71 b 471 147 419 83 465 132 b 404 242 489 197 449 242 b 361 225 390 242 375 236 b 282 151 333 201 315 167 b 254 146 274 147 264 146 b 210 161 238 146 221 151 b 181 225 194 178 186 201 b 465 474 300 265 439 339 b 292 694 488 593 396 694 b 47 408 150 694 74 525 b 51 169 29 331 31 246 b 254 6 78 72 153 8 b 407 71 310 6 368 32 z "},"f":{"ha":489,"x_min":0,"x_max":0,"o":"m 283 85 b 274 544 281 143 274 488 b 319 550 289 546 306 544 b 340 667 369 568 378 629 b 278 683 325 683 299 685 b 304 821 281 731 286 778 b 344 872 314 840 328 858 b 365 867 349 876 360 869 b 404 858 376 861 390 858 b 458 882 426 858 442 867 b 475 926 469 893 474 911 b 460 972 476 943 468 958 b 363 1011 446 990 385 1010 b 296 1003 340 1014 317 1013 b 138 672 171 946 144 794 b 125 671 138 671 126 671 b 100 675 117 674 108 675 b 21 611 63 675 26 649 b 65 535 15 578 33 546 b 135 532 88 526 111 531 b 144 72 135 472 140 133 b 164 35 146 58 154 46 b 214 14 178 21 196 14 b 283 85 250 14 285 42 z "},"g":{"ha":571,"x_min":0,"x_max":0,"o":"m 476 -114 b 529 178 525 -40 529 94 b 526 457 529 271 522 364 b 514 497 528 471 522 486 b 457 528 500 518 478 528 b 392 481 429 528 401 511 b 219 186 363 394 308 204 b 185 189 210 185 190 182 b 169 244 175 197 169 232 b 201 400 168 297 181 351 b 315 529 217 440 265 525 b 358 524 329 532 343 524 b 424 617 406 524 439 571 b 324 669 410 654 365 669 b 185 617 275 669 222 647 b 82 475 142 578 107 528 b 32 214 44 394 24 303 b 201 46 42 118 103 46 b 390 144 278 46 343 86 b 365 -29 390 86 386 26 b 250 -79 350 -65 292 -79 b 171 -57 221 -79 196 -71 b 136 -47 160 -50 147 -47 b 76 -151 88 -47 47 -101 b 251 -218 104 -200 201 -218 b 476 -114 339 -218 431 -182 z "},"h":{"ha":658,"x_min":0,"x_max":0,"o":"m 558 18 b 588 64 574 28 585 46 b 613 404 606 176 614 290 b 433 703 613 529 593 703 b 203 447 306 703 238 549 b 240 847 206 504 228 792 b 253 893 243 863 253 878 b 185 963 253 936 219 963 b 100 857 124 963 108 906 b 85 725 93 813 89 768 b 58 322 71 590 61 457 b 65 161 57 268 60 214 b 153 25 69 107 81 25 b 211 53 178 25 194 36 b 294 279 243 83 281 238 b 361 472 314 344 333 410 b 419 558 376 504 393 538 b 433 564 424 561 429 564 b 453 554 439 563 450 560 b 472 460 467 525 469 492 b 451 88 479 336 469 211 b 519 6 444 42 481 6 b 558 18 532 6 546 10 z "},"i":{"ha":278,"x_min":0,"x_max":0,"o":"m 186 779 b 210 793 194 782 203 788 b 219 890 240 814 242 858 b 140 913 204 913 167 919 b 132 781 74 894 68 806 b 160 776 140 778 150 776 b 186 779 168 776 178 778 z m 189 68 b 215 583 192 132 211 521 b 218 590 215 585 217 589 b 219 631 224 603 224 618 b 151 683 210 665 182 683 b 82 632 122 683 93 665 b 76 582 78 615 78 599 b 50 68 72 519 53 132 b 113 -3 49 32 78 0 b 119 -3 115 -3 117 -3 b 189 68 158 -3 188 29 z "},"j":{"ha":271,"x_min":0,"x_max":0,"o":"m 160 774 b 183 786 168 775 176 782 b 193 883 215 808 215 853 b 114 907 178 907 140 914 b 106 774 47 889 42 799 b 133 769 115 771 124 769 b 160 774 143 769 151 771 z m 156 -114 b 206 85 190 -64 200 25 b 211 606 219 257 203 432 b 142 676 214 643 181 676 b 72 606 104 676 75 643 b 72 233 67 481 74 357 b 43 -32 72 154 71 43 b -69 -79 28 -65 -35 -79 b -110 -75 -82 -79 -96 -78 b -150 -57 -124 -71 -137 -64 b -185 -47 -161 -50 -174 -47 b -244 -151 -233 -47 -274 -101 b -69 -218 -217 -200 -119 -218 b 156 -114 18 -218 110 -182 z "},"k":{"ha":613,"x_min":0,"x_max":0,"o":"m 204 63 b 210 243 207 122 208 183 b 226 232 213 242 224 233 b 440 78 297 181 372 133 b 475 46 453 68 464 57 b 524 29 486 35 507 29 b 565 44 539 29 553 36 b 586 74 575 51 581 63 b 582 132 594 92 590 115 b 476 225 571 156 497 210 b 303 347 456 240 324 331 b 461 556 321 374 443 529 b 532 654 472 569 525 639 b 528 713 540 672 536 696 b 503 739 524 724 513 732 b 457 747 490 749 472 749 b 424 733 444 747 433 740 b 335 617 404 719 349 636 b 214 460 296 564 254 513 b 222 858 214 508 219 808 b 225 918 222 867 224 910 b 157 999 233 967 196 999 b 97 965 136 999 113 989 b 86 939 92 958 89 949 b 83 878 85 931 83 888 b 65 63 74 606 75 333 b 100 0 64 38 78 14 b 133 -8 111 -6 122 -8 b 204 63 171 -8 203 21 z "},"l":{"ha":288,"x_min":0,"x_max":0,"o":"m 217 79 b 211 676 208 278 207 478 b 217 867 211 740 213 803 b 222 933 218 889 228 911 b 153 986 213 967 185 986 b 101 963 128 986 118 979 b 85 928 92 954 88 940 b 71 614 72 882 71 661 b 78 67 71 542 72 139 b 146 8 81 33 115 8 b 217 79 183 8 218 36 z "},"m":{"ha":949,"x_min":0,"x_max":0,"o":"m 872 47 b 882 103 883 63 882 85 b 900 560 885 256 917 408 b 778 697 892 631 858 697 b 551 524 686 697 599 592 b 407 676 535 596 493 676 b 300 614 365 676 325 647 b 186 363 247 538 217 449 b 201 618 188 396 197 585 b 207 647 203 628 207 638 b 138 717 207 689 174 717 b 67 654 97 717 75 690 b 47 347 57 611 49 392 b 47 240 46 311 44 275 b 83 75 53 185 58 126 b 156 28 97 46 126 28 b 261 151 217 28 244 103 b 353 415 293 239 319 328 b 407 525 368 453 385 490 b 421 456 415 503 418 479 b 439 310 426 407 426 357 b 514 251 449 274 479 251 b 596 314 556 251 576 281 b 675 460 622 363 643 414 b 761 549 699 493 726 526 b 765 433 768 511 768 471 b 744 140 763 335 749 239 b 744 71 743 118 743 94 b 814 14 747 35 781 14 b 872 47 840 14 858 24 z "},"n":{"ha":654,"x_min":0,"x_max":0,"o":"m 594 85 b 607 315 596 114 606 286 b 590 607 611 413 613 513 b 496 697 576 657 553 697 b 342 610 444 697 376 643 b 196 428 283 558 236 494 b 217 629 201 496 204 563 b 147 711 225 676 186 711 b 74 610 89 711 76 657 b 46 140 57 454 43 297 b 121 33 46 92 61 33 b 178 60 142 33 163 43 b 229 181 192 76 222 161 b 464 532 275 303 358 453 b 467 303 474 456 471 379 b 456 85 464 231 460 157 b 521 15 456 49 483 15 b 594 85 565 15 592 42 z "},"o":{"ha":576,"x_min":0,"x_max":0,"o":"m 253 136 b 174 333 190 165 174 275 b 214 496 175 389 186 447 b 304 575 233 531 267 575 b 376 511 338 575 364 538 b 379 246 413 431 410 329 b 294 138 363 203 336 157 b 271 132 288 133 279 132 b 253 136 265 132 258 133 z m 538 310 b 517 533 547 383 540 463 b 304 710 488 624 406 710 b 86 550 207 710 126 632 b 61 172 29 438 18 292 b 271 -3 94 79 165 -3 b 538 310 431 -3 518 174 z "},"ø":{"ha":576,"x_min":0,"x_max":0,"o":"m 253 136 b 174 333 190 165 174 275 b 214 496 175 389 186 447 b 304 575 233 531 267 575 b 376 511 338 575 364 538 b 379 246 413 431 410 329 b 294 138 363 203 336 157 b 271 132 288 133 279 132 b 253 136 265 132 258 133 z m 538 310 b 517 533 547 383 540 463 b 304 710 488 624 406 710 b 86 550 207 710 126 632 b 61 172 29 438 18 292 b 271 -3 94 79 165 -3 b 538 310 431 -3 518 174 z "},"p":{"ha":663,"x_min":0,"x_max":0,"o":"m 272 190 b 400 510 304 300 333 417 b 449 561 413 529 428 550 b 463 536 454 554 458 546 b 479 310 493 467 492 385 b 350 147 464 235 444 147 b 272 190 313 147 293 161 z m 181 -222 b 194 -156 186 -212 192 -165 b 233 39 206 -90 218 -25 b 350 10 267 19 308 10 b 624 356 553 10 610 188 b 604 556 629 422 624 492 b 451 703 582 626 535 703 b 204 432 326 703 242 529 b 222 596 208 488 214 542 b 239 639 224 611 235 624 b 233 682 243 653 240 668 b 169 722 221 708 196 722 b 110 694 147 722 125 714 b 69 475 82 661 74 519 b 44 -187 50 256 43 33 b 51 -221 44 -199 47 -210 b 118 -267 60 -250 88 -267 b 181 -222 149 -267 168 -250 z "},"q":{"ha":543,"x_min":0,"x_max":0,"o":"m 185 150 b 178 168 181 151 179 164 b 183 318 167 217 174 269 b 331 581 204 413 247 524 b 347 578 333 582 343 579 b 354 574 350 576 356 578 b 194 150 340 506 274 172 b 185 150 193 150 188 149 z m 468 -208 b 469 10 464 -136 467 -62 b 499 572 476 197 486 385 b 496 619 500 588 501 604 b 439 664 488 644 464 663 b 408 703 433 679 422 694 b 328 719 385 715 356 718 b 235 682 294 724 263 701 b 60 393 143 615 89 500 b 33 203 43 332 31 267 b 189 11 40 103 78 11 b 333 86 246 11 299 43 b 329 -221 329 -15 321 -119 b 399 -279 333 -254 367 -279 b 468 -208 438 -279 469 -249 z "},"r":{"ha":493,"x_min":0,"x_max":0,"o":"m 172 -3 b 250 179 200 21 238 146 b 404 493 279 257 349 431 b 451 619 475 488 504 574 b 396 640 436 633 415 640 b 196 404 301 640 226 475 b 211 635 196 439 203 601 b 200 688 215 653 210 672 b 144 717 185 708 164 717 b 72 650 110 717 75 692 b 51 226 60 510 53 368 b 58 26 50 193 47 58 b 126 -19 69 -3 97 -19 b 172 -3 143 -19 158 -14 z "},"s":{"ha":507,"x_min":0,"x_max":0,"o":"m 453 114 b 471 231 469 150 478 193 b 435 313 465 260 453 289 b 232 490 383 386 290 422 b 213 522 224 499 215 510 b 244 583 208 542 228 572 b 256 589 247 585 254 589 b 321 554 278 590 313 575 b 388 506 335 526 353 506 b 453 551 418 506 439 525 b 379 693 475 600 424 663 b 256 731 344 717 299 731 b 72 533 157 731 78 626 b 171 354 72 461 117 399 b 311 243 217 315 268 283 b 335 197 324 231 336 215 b 247 150 335 163 272 150 b 169 190 217 150 190 169 b 132 229 157 203 147 219 b 97 238 122 235 110 238 b 43 213 76 238 56 229 b 29 154 32 196 24 174 b 249 7 50 79 169 7 b 453 114 326 7 422 49 z "},"t":{"ha":407,"x_min":0,"x_max":0,"o":"m 269 51 b 272 108 271 60 272 100 b 276 464 274 151 276 419 b 342 472 299 465 321 467 b 378 503 357 476 369 489 b 388 538 385 513 388 525 b 372 582 389 553 382 569 b 319 607 361 597 338 607 b 282 603 307 607 294 604 b 283 690 283 632 286 661 b 232 746 282 715 257 740 b 150 703 199 756 163 736 b 142 599 144 688 143 615 b 132 599 142 597 133 599 b 97 608 122 606 110 608 b 36 579 75 608 50 597 b 56 471 7 544 18 493 b 138 460 79 457 110 460 b 132 65 136 410 135 114 b 157 11 131 44 142 24 b 200 -4 169 0 185 -4 b 269 51 231 -4 260 17 z "},"u":{"ha":560,"x_min":0,"x_max":0,"o":"m 493 276 b 508 661 510 353 542 592 b 446 697 499 683 471 697 b 381 640 415 697 389 672 b 382 597 376 626 382 613 b 358 315 386 503 379 407 b 306 188 350 269 336 222 b 274 161 296 178 286 167 b 243 156 264 157 253 154 b 228 174 236 156 231 168 b 183 344 200 226 188 286 b 181 519 179 403 178 461 b 199 636 181 533 197 621 b 146 704 201 665 175 696 b 128 707 140 706 133 707 b 60 643 94 707 65 681 b 40 483 50 590 40 538 b 90 139 40 374 43 239 b 243 17 126 67 156 17 b 493 276 389 17 464 149 z "},"v":{"ha":551,"x_min":0,"x_max":0,"o":"m 304 32 b 415 275 343 113 381 193 b 532 629 442 338 539 561 b 521 658 532 639 526 649 b 464 688 507 678 486 688 b 394 622 424 688 401 658 b 364 524 386 589 375 556 b 257 258 333 433 294 346 b 163 632 219 382 182 506 b 96 690 157 665 129 690 b 25 622 61 690 29 663 b 32 576 25 615 31 583 b 178 43 65 396 121 217 b 244 -3 188 13 217 -3 b 304 32 268 -3 293 8 z "},"w":{"ha":926,"x_min":0,"x_max":0,"o":"m 678 26 b 789 269 717 107 753 188 b 906 622 815 331 913 556 b 893 651 906 633 900 643 b 838 681 881 671 858 681 b 768 617 796 681 775 654 b 738 518 760 583 749 550 b 631 253 706 428 668 340 b 536 626 593 376 556 500 b 463 690 531 665 497 690 b 394 626 422 690 401 663 b 364 528 386 593 375 561 b 257 263 333 438 294 350 b 163 636 219 386 182 510 b 96 694 157 669 129 694 b 25 626 61 694 29 667 b 32 581 25 619 31 588 b 178 47 65 400 121 221 b 244 1 188 17 217 1 b 304 36 269 1 293 13 b 453 371 357 146 407 257 b 551 38 483 258 517 147 b 618 -10 561 7 590 -10 b 678 26 643 -10 667 3 z "},"x":{"ha":606,"x_min":0,"x_max":0,"o":"m 149 14 b 296 215 201 79 249 147 b 408 19 335 150 374 86 b 471 -17 419 -3 446 -17 b 529 89 521 -17 556 39 b 383 340 483 174 432 257 b 456 440 407 374 431 407 b 578 635 500 503 546 565 b 567 703 588 656 581 683 b 517 728 556 719 536 728 b 446 679 479 728 461 710 b 308 474 408 606 357 540 b 224 668 276 536 246 601 b 219 690 222 675 222 683 b 194 722 215 703 206 715 b 154 736 182 732 168 736 b 86 644 111 736 74 694 b 219 349 114 542 168 442 b 42 101 161 265 106 181 b 29 86 38 97 32 92 b 88 -18 3 40 35 -14 b 93 -18 89 -18 92 -18 b 149 14 114 -18 136 -3 z "},"y":{"ha":617,"x_min":0,"x_max":0,"o":"m 501 -135 b 560 78 544 -82 553 13 b 565 590 574 247 561 419 b 565 639 565 606 567 622 b 496 697 561 671 528 697 b 432 651 467 697 442 679 b 425 585 424 631 428 607 b 263 201 415 488 361 251 b 218 199 249 196 232 194 b 179 319 189 210 181 294 b 208 624 176 421 192 524 b 193 682 211 643 207 667 b 140 707 179 699 160 707 b 72 647 108 707 78 685 b 40 336 56 544 39 440 b 233 58 43 211 79 58 b 425 168 317 58 379 101 b 397 -40 424 107 419 17 b 286 -87 385 -74 318 -87 b 206 -65 253 -87 233 -81 b 171 -56 194 -58 183 -56 b 106 -100 144 -56 118 -72 b 150 -193 89 -136 114 -176 b 289 -226 193 -215 242 -226 b 501 -135 368 -226 450 -197 z "},"ý":{"ha":617,"x_min":0,"x_max":0,"o":"m 501 -135 b 560 78 544 -82 553 13 b 565 590 574 247 561 419 b 565 639 565 606 567 622 b 496 697 561 671 528 697 b 432 651 467 697 442 679 b 425 585 424 631 428 607 b 263 201 415 488 361 251 b 218 199 249 196 232 194 b 179 319 189 210 181 294 b 208 624 176 421 192 524 b 193 682 211 643 207 667 b 140 707 179 699 160 707 b 72 647 108 707 78 685 b 40 336 56 544 39 440 b 233 58 43 211 79 58 b 425 168 317 58 379 101 b 397 -40 424 107 419 17 b 286 -87 385 -74 318 -87 b 206 -65 253 -87 233 -81 b 171 -56 194 -58 183 -56 b 106 -100 144 -56 118 -72 b 150 -193 89 -136 114 -176 b 289 -226 193 -215 242 -226 b 501 -135 368 -226 450 -197 z "},"z":{"ha":479,"x_min":0,"x_max":0,"o":"m 418 63 b 374 185 471 107 433 185 b 349 181 365 185 357 183 b 204 146 301 164 254 146 b 433 535 310 257 413 378 b 428 625 438 565 438 596 b 318 701 408 674 368 694 b 139 704 258 708 199 706 b 110 704 129 704 119 706 b 110 567 32 690 33 581 b 175 567 132 563 154 565 b 296 564 215 568 257 569 b 140 281 296 464 204 349 b 43 171 107 244 71 213 b 46 64 19 138 21 96 b 203 7 79 24 153 7 b 418 63 254 7 386 36 z "},"{":{"ha":535,"x_min":0,"x_max":0,"o":"m 413 -74 b 449 -18 433 -64 446 -39 b 379 57 451 22 419 57 b 318 38 358 57 339 44 b 293 32 311 35 301 32 b 272 43 283 32 276 35 b 321 318 249 93 311 263 b 318 403 326 346 326 376 b 235 482 307 439 271 468 b 325 718 282 553 306 636 b 372 865 332 747 351 844 b 401 869 378 871 394 871 b 429 861 406 869 425 861 b 486 982 499 849 540 936 b 453 999 476 990 465 994 b 393 1010 435 1006 414 1010 b 199 788 257 1010 226 897 b 97 529 182 714 153 585 b 60 496 86 518 71 508 b 69 392 33 464 39 418 b 108 374 81 382 94 376 b 186 353 133 367 161 363 b 131 113 172 271 140 194 b 140 -1 126 75 126 33 b 297 -107 165 -68 226 -107 b 413 -74 338 -107 376 -90 z "},"|":{"ha":307,"x_min":0,"x_max":0,"o":"m 225 -71 b 224 282 226 47 225 165 b 222 869 219 478 225 674 b 226 906 226 881 229 894 b 213 961 225 915 217 953 b 153 996 204 982 174 996 b 86 951 125 996 97 979 b 82 897 81 933 79 915 b 83 885 82 896 83 886 b 85 263 86 678 81 471 b 86 -71 88 151 88 40 b 106 -121 85 -89 93 -107 b 154 -142 119 -135 138 -142 b 225 -71 190 -142 224 -114 z "},"}":{"ha":460,"x_min":0,"x_max":0,"o":"m 161 -119 b 364 118 268 -76 364 -7 b 347 265 365 167 351 217 b 349 300 346 272 344 294 b 382 346 351 307 378 339 b 393 429 399 369 403 401 b 343 497 383 456 361 476 b 322 560 329 514 322 538 b 354 836 317 653 349 743 b 304 954 356 879 338 928 b 142 1013 260 990 197 999 b 94 1024 126 1015 111 1022 b 24 956 56 1028 28 994 b 39 911 22 940 31 924 b 75 888 47 900 61 892 b 214 847 94 881 196 858 b 189 671 217 821 192 697 b 197 475 181 606 176 538 b 247 397 207 446 226 419 b 207 296 225 368 210 332 b 225 119 204 236 225 178 b 185 50 225 83 211 71 b 106 7 160 32 133 18 b 78 -4 101 6 82 -3 b 113 -133 17 -40 42 -133 b 161 -119 129 -133 146 -126 z "},"~":{"ha":646,"x_min":0,"x_max":0,"o":"m 179 460 b 183 496 185 471 185 483 b 182 504 183 499 181 501 b 194 528 186 513 190 519 b 379 433 249 472 300 433 b 574 514 446 433 531 465 b 610 608 594 540 613 575 b 542 665 607 644 575 665 b 482 633 514 665 499 654 b 468 606 481 631 471 608 b 371 572 453 583 399 571 b 333 588 358 574 344 579 b 238 674 299 613 274 650 b 186 690 222 685 204 690 b 76 600 129 690 101 644 b 39 483 56 565 33 524 b 117 417 43 443 78 417 b 179 460 147 417 165 432 z "}," ":{"ha":417,"x_min":0,"x_max":0,"o":""},"¡":{"ha":333,"x_min":0,"x_max":0,"o":"m 274 911 b 194 997 286 960 244 1006 b 158 982 182 994 169 989 b 194 853 94 940 126 853 b 274 911 229 853 264 878 z m 224 28 b 215 92 224 36 215 83 b 225 503 201 228 210 367 b 250 675 228 524 247 654 b 179 746 250 714 218 746 b 119 711 157 746 133 735 b 107 653 110 694 110 672 b 78 68 74 461 58 263 b 89 4 81 47 83 25 b 160 -42 96 -25 132 -42 b 224 28 194 -42 224 -8 z "},"¢":{"ha":508,"x_min":0,"x_max":0,"o":"m 311 75 b 308 97 311 78 308 93 b 306 189 307 110 306 178 b 311 211 306 193 310 208 b 432 279 354 229 394 253 b 457 344 451 293 458 321 b 388 403 454 379 421 403 b 353 393 375 403 363 400 b 275 347 328 376 301 360 b 228 335 263 340 244 335 b 200 344 217 335 206 338 b 192 393 192 351 192 382 b 300 592 190 467 229 574 b 318 569 307 585 313 576 b 367 553 329 560 350 553 b 432 610 396 553 424 578 b 417 667 438 629 429 651 b 332 728 397 696 365 719 b 340 792 335 749 333 771 b 338 844 347 808 346 828 b 276 883 325 871 300 883 b 206 832 247 883 217 865 b 194 751 196 807 199 778 b 183 686 192 729 183 708 b 131 632 163 672 144 653 b 58 333 69 550 40 435 b 167 207 68 272 108 226 b 175 53 167 182 169 76 b 240 8 183 24 211 8 b 311 75 281 8 307 36 z "},"£":{"ha":851,"x_min":0,"x_max":0,"o":"m 697 8 b 760 46 719 19 742 29 b 776 90 771 57 775 75 b 708 161 779 129 746 157 b 706 161 707 161 707 161 b 657 143 689 161 671 151 b 588 122 636 132 611 125 b 468 117 547 118 508 117 b 267 126 401 117 333 121 b 386 401 328 206 361 304 b 649 432 474 407 561 418 b 694 461 665 435 683 446 b 625 568 731 513 686 579 b 424 543 558 558 490 549 b 621 861 453 638 514 828 b 671 868 636 865 654 868 b 708 863 683 868 696 867 b 739 857 718 860 728 857 b 779 869 753 857 768 861 b 783 979 815 896 815 947 b 678 1006 763 1000 708 1006 b 403 846 554 1006 465 953 b 276 533 346 750 306 642 b 207 531 267 533 218 529 b 156 519 190 535 169 529 b 168 394 108 486 114 415 b 240 393 190 388 217 392 b 136 188 218 318 190 242 b 60 128 113 164 85 147 b 42 35 32 106 24 65 b 79 3 50 21 64 10 b 189 -7 97 -6 171 -7 b 444 -22 274 -12 358 -22 b 697 8 514 -22 635 -21 z "},"¤":{"ha":660,"x_min":0,"x_max":0,"o":"m 301 374 b 279 443 288 385 281 425 b 308 561 278 483 285 528 b 333 585 313 568 325 583 b 350 583 336 585 347 585 b 394 518 371 567 389 544 b 351 378 404 476 388 403 b 319 369 343 372 331 369 b 301 374 313 369 306 371 z m 196 183 b 226 218 203 196 214 208 b 253 243 235 226 246 233 b 318 231 272 233 296 231 b 406 249 349 231 379 238 b 503 194 426 231 472 194 b 539 203 515 194 528 197 b 549 317 581 222 588 290 b 508 344 535 326 522 336 b 504 353 506 346 503 351 b 528 560 533 417 546 493 b 532 569 526 563 531 568 b 597 640 539 581 589 631 b 613 697 610 656 615 678 b 543 753 607 732 576 753 b 521 750 535 753 528 751 b 447 683 503 746 460 697 b 313 747 418 707 351 747 b 247 701 285 747 257 728 b 244 693 247 699 247 694 b 207 657 231 683 218 671 b 193 668 203 661 199 665 b 182 693 189 671 185 689 b 122 728 168 717 146 728 b 60 688 97 728 72 714 b 53 642 53 674 49 657 b 140 538 64 604 101 551 b 149 535 143 538 149 538 b 160 343 135 472 138 403 b 71 243 122 317 89 283 b 69 194 64 228 64 210 b 135 149 81 164 108 149 b 196 183 158 149 182 160 z "},"¥":{"ha":722,"x_min":0,"x_max":0,"o":"m 388 92 b 390 207 390 107 389 192 b 507 213 406 208 492 210 b 507 349 583 226 583 336 b 394 347 490 351 411 347 b 399 446 396 381 397 413 b 504 444 414 446 489 446 b 572 551 565 433 608 501 b 522 582 561 568 542 581 b 469 585 504 583 486 585 b 678 890 508 631 657 833 b 611 983 697 943 654 983 b 553 947 589 983 567 972 b 336 644 500 854 413 721 b 190 943 278 714 218 858 b 118 1015 190 985 160 1015 b 50 942 79 1015 50 981 b 69 867 50 915 61 890 b 215 574 107 764 151 663 b 126 553 200 571 139 561 b 149 425 69 521 85 436 b 260 439 165 421 242 438 b 254 340 257 407 256 374 b 235 342 249 340 240 339 b 211 346 226 344 219 346 b 144 257 167 346 132 304 b 176 215 149 240 161 225 b 250 201 199 203 225 200 b 250 104 250 168 250 136 b 321 33 250 58 285 33 b 388 92 351 33 381 53 z "},"¦":{"ha":288,"x_min":0,"x_max":0,"o":"m 204 742 b 206 943 204 768 203 917 b 193 983 207 957 201 971 b 136 1013 179 1004 157 1013 b 69 965 108 1013 81 996 b 65 928 67 953 65 940 b 69 718 65 896 61 750 b 136 672 78 690 108 672 b 204 742 175 672 204 704 z m 207 26 b 217 54 213 35 214 44 b 222 276 225 89 224 242 b 224 307 222 286 225 297 b 154 364 217 344 186 364 b 88 317 126 364 99 349 b 85 251 79 296 83 274 b 83 135 86 213 85 174 b 79 51 83 124 78 63 b 147 -6 82 15 114 -6 b 207 26 175 -6 190 6 z "},"§":{"ha":631,"x_min":0,"x_max":0,"o":"m 293 428 b 251 507 276 453 263 479 b 271 592 240 536 249 571 b 292 608 276 599 283 603 b 339 486 308 567 325 528 b 349 429 344 468 350 449 b 293 428 331 425 313 426 z m 329 -33 b 506 128 421 -25 511 36 b 485 199 504 153 497 178 b 400 300 463 238 431 268 b 488 419 453 321 482 363 b 461 556 490 465 476 513 b 381 772 435 628 399 697 b 381 847 376 790 365 833 b 435 856 393 860 417 858 b 461 814 444 842 453 828 b 511 789 471 800 494 789 b 538 793 519 789 529 790 b 581 881 575 803 590 844 b 538 950 578 894 546 939 b 414 997 514 982 463 997 b 238 858 329 997 250 944 b 246 739 231 819 236 778 b 114 488 150 703 88 586 b 279 226 138 393 213 297 b 367 124 294 210 358 146 b 282 103 354 106 304 103 b 158 118 240 103 199 110 b 135 131 150 119 143 128 b 113 135 128 133 121 135 b 58 111 89 135 75 128 b 57 21 35 88 38 46 b 283 -35 94 -26 228 -35 b 329 -33 299 -35 314 -35 z "},"¨":{"ha":443,"x_min":0,"x_max":0,"o":"m 165 871 b 106 910 153 897 129 910 b 35 864 78 910 50 894 b 51 790 25 840 33 807 b 100 769 67 775 83 769 b 165 871 146 769 190 818 z m 413 833 b 343 904 417 872 382 904 b 286 892 324 904 303 903 b 279 786 251 867 249 817 b 335 763 296 769 315 763 b 413 833 372 763 408 789 z "},"©":{"ha":968,"x_min":0,"x_max":0,"o":"m 200 469 b 319 825 186 596 233 732 b 518 921 371 879 442 921 b 768 664 667 921 747 796 b 713 368 785 565 761 456 b 450 190 658 274 563 190 b 200 469 296 190 214 332 z m 628 403 b 560 474 631 442 597 469 b 507 463 540 474 526 463 b 438 515 482 465 444 490 b 467 618 428 550 443 592 b 517 746 544 606 581 701 b 471 761 510 750 479 760 b 408 749 451 768 426 761 b 299 501 331 700 283 594 b 478 326 314 408 389 347 b 508 324 488 324 499 324 b 628 403 561 324 624 342 z m 871 379 b 885 775 918 501 925 650 b 524 1060 831 936 699 1060 b 100 732 326 1060 168 907 b 86 335 53 608 46 461 b 451 50 142 175 274 50 b 871 379 647 50 804 206 z "},"«":{"ha":736,"x_min":0,"x_max":0,"o":"m 369 383 b 343 433 368 401 358 422 b 197 525 296 465 244 493 b 369 690 219 549 350 664 b 369 760 382 710 379 739 b 310 794 358 783 335 794 b 254 769 282 794 272 788 b 117 640 238 751 133 657 b 56 568 94 618 71 596 b 43 501 44 549 39 524 b 63 458 46 486 54 471 b 136 397 82 432 110 415 b 257 324 153 388 242 336 b 301 307 271 313 286 307 b 369 383 339 307 374 339 z m 650 406 b 692 493 686 415 703 457 b 672 524 689 504 681 514 b 632 539 663 533 646 538 b 508 581 614 543 525 574 b 575 619 529 594 551 608 b 608 697 601 632 615 669 b 540 749 600 729 571 749 b 508 742 529 749 518 746 b 350 632 467 724 382 667 b 335 526 321 603 315 560 b 400 474 347 501 375 486 b 622 401 431 460 592 401 b 650 406 632 401 642 403 z "},"¬":{"ha":810,"x_min":0,"x_max":0,"o":"m 742 274 b 749 319 747 288 746 304 b 760 469 754 369 761 419 b 629 653 760 561 725 638 b 513 657 590 660 551 658 b 133 624 385 650 260 631 b 118 626 128 624 122 625 b 47 597 93 633 63 618 b 81 492 21 560 38 508 b 126 483 94 486 111 483 b 194 490 149 483 172 488 b 511 518 300 500 406 513 b 585 518 535 519 560 519 b 615 513 592 518 611 518 b 619 490 618 510 619 494 b 607 308 626 429 613 368 b 636 240 606 283 617 256 b 676 228 649 232 663 228 b 742 274 704 228 732 244 z "},"­":{"ha":0,"x_min":0,"x_max":0,"o":""},"®":{"ha":968,"x_min":0,"x_max":0,"o":"m 200 469 b 319 825 186 596 233 732 b 518 921 371 879 442 921 b 768 664 667 921 747 796 b 713 368 785 565 761 456 b 450 190 658 274 563 190 b 200 469 296 190 214 332 z m 432 426 b 447 482 446 440 450 463 b 572 438 469 471 547 438 b 617 561 636 438 665 519 b 576 579 606 571 590 575 b 582 678 590 610 594 649 b 503 758 565 711 538 742 b 432 764 482 768 456 767 b 358 740 407 763 379 757 b 321 668 346 729 325 685 b 308 465 315 636 304 499 b 325 428 311 451 318 439 b 354 406 332 418 344 411 b 376 401 361 403 369 401 b 432 426 400 401 417 408 z m 871 379 b 885 775 918 501 925 650 b 524 1060 831 936 699 1060 b 100 732 326 1060 168 907 b 86 335 53 608 46 461 b 451 50 142 175 274 50 b 871 379 647 50 804 206 z "},"°":{"ha":472,"x_min":0,"x_max":0,"o":"m 188 753 b 199 831 181 778 189 807 b 226 832 208 831 218 829 b 240 835 229 832 238 835 b 275 824 253 832 264 831 b 289 796 285 819 288 807 b 278 742 290 778 290 756 b 226 724 264 731 244 724 b 188 753 206 724 193 731 z m 401 678 b 425 825 426 721 435 776 b 281 968 407 908 361 947 b 210 972 257 974 233 978 b 203 969 208 971 206 969 b 111 944 172 972 136 965 b 61 858 88 922 71 890 b 49 733 49 819 42 775 b 224 585 68 644 133 585 b 401 678 293 585 367 619 z "},"±":{"ha":713,"x_min":0,"x_max":0,"o":"m 404 343 b 422 485 411 390 417 438 b 608 483 447 485 583 482 b 647 504 622 485 636 494 b 596 622 690 549 658 622 b 438 624 543 622 490 622 b 446 729 439 636 444 717 b 372 800 450 769 413 800 b 307 728 331 800 310 765 b 299 626 304 694 303 661 b 146 631 249 628 197 629 b 132 493 60 632 49 507 b 283 489 153 489 263 489 b 267 354 281 471 268 372 b 279 314 265 340 271 326 b 336 283 293 293 315 283 b 404 343 368 283 399 306 z m 132 85 b 232 103 165 88 199 96 b 389 131 285 114 336 124 b 557 144 444 136 501 139 b 614 200 588 149 606 172 b 549 282 625 239 590 282 b 544 282 547 282 546 282 b 289 256 458 276 374 271 b 151 228 243 247 197 238 b 142 232 147 226 144 231 b 118 236 133 235 125 236 b 53 135 69 236 33 185 b 132 85 64 103 97 82 z "},"²":{"ha":404,"x_min":0,"x_max":0,"o":"m 318 547 b 360 636 354 560 374 600 b 307 681 351 657 329 674 b 242 682 299 682 251 682 b 292 882 272 743 297 813 b 275 939 289 901 286 922 b 190 986 257 969 225 986 b 63 942 147 986 85 968 b 61 849 39 914 39 875 b 122 821 76 831 100 821 b 149 826 132 821 140 822 b 86 651 136 765 90 713 b 119 576 85 624 99 594 b 274 543 157 544 225 543 b 318 547 293 543 310 544 z "},"³":{"ha":374,"x_min":0,"x_max":0,"o":"m 283 533 b 324 689 315 576 333 636 b 296 751 321 711 311 733 b 235 799 281 772 257 786 b 274 879 250 825 269 850 b 246 960 279 910 268 939 b 183 985 229 974 206 982 b 128 993 176 986 135 990 b 81 985 113 997 94 992 b 61 881 42 967 36 917 b 107 856 71 867 90 860 b 86 785 96 833 88 810 b 144 692 86 743 111 714 b 186 665 150 688 182 669 b 188 657 189 664 188 658 b 178 624 188 644 182 633 b 143 625 165 624 154 626 b 101 511 90 615 67 553 b 131 492 108 503 119 496 b 171 485 140 488 156 485 b 283 533 214 485 257 497 z "},"´":{"ha":283,"x_min":0,"x_max":0,"o":"m 161 767 b 226 810 182 783 204 796 b 250 851 239 819 246 836 b 247 888 254 863 251 875 b 182 932 239 917 211 932 b 160 929 174 932 167 931 b 101 894 149 926 111 900 b 49 854 83 882 65 869 b 32 810 38 843 33 825 b 100 739 29 771 63 743 b 103 739 101 739 101 739 b 161 767 124 739 144 753 z "},"¶":{"ha":831,"x_min":0,"x_max":0,"o":"m 492 119 b 500 685 494 308 494 497 b 514 918 503 763 506 840 b 519 928 514 919 518 925 b 447 1031 549 978 506 1040 b 422 1025 439 1029 431 1025 b 394 1032 418 1025 397 1032 b 313 1024 367 1036 339 1031 b 76 815 214 997 118 908 b 43 689 57 775 42 732 b 278 432 47 565 164 460 b 313 428 289 429 301 428 b 357 433 328 428 343 429 b 353 119 356 329 354 224 b 372 69 353 100 360 83 b 421 49 386 56 404 49 b 492 119 457 49 490 76 z m 703 50 b 706 93 708 64 707 79 b 708 296 703 121 707 268 b 746 906 713 379 732 822 b 753 913 746 907 751 911 b 746 1010 781 940 772 983 b 703 1028 733 1022 718 1028 b 608 922 646 1028 614 972 b 593 740 600 863 597 801 b 567 178 581 553 571 365 b 572 53 565 136 561 93 b 639 7 581 22 608 7 b 703 50 669 7 689 21 z "},"·":{"ha":203,"x_min":0,"x_max":0,"o":"m 149 486 b 161 579 176 510 182 550 b 104 608 147 600 126 608 b 39 574 81 608 56 596 b 29 528 29 561 28 543 b 96 467 33 496 64 467 b 149 486 114 467 133 474 z "},"¸":{"ha":292,"x_min":0,"x_max":0,"o":"m 283 -132 b 278 -31 292 -99 286 -64 b 218 49 269 1 246 32 b 169 167 265 96 225 167 b 133 157 157 167 146 164 b 36 40 107 142 49 68 b 81 -61 17 0 40 -44 b 144 -71 101 -69 124 -67 b 147 -107 147 -79 151 -100 b 133 -121 143 -112 138 -117 b 118 -160 124 -132 118 -146 b 190 -235 114 -201 147 -235 b 283 -132 238 -235 275 -174 z "},"¹":{"ha":357,"x_min":0,"x_max":0,"o":"m 293 621 b 290 633 293 622 290 631 b 303 844 292 660 301 818 b 299 939 304 875 310 908 b 231 985 288 967 260 985 b 196 975 219 985 207 982 b 121 903 183 967 132 913 b 110 903 119 901 113 903 b 64 888 93 904 78 897 b 75 774 26 861 32 793 b 122 764 89 767 106 764 b 158 768 135 764 147 765 b 151 606 157 746 150 628 b 168 557 153 589 157 569 b 222 532 179 543 204 532 b 293 621 264 532 304 578 z "},"»":{"ha":607,"x_min":0,"x_max":0,"o":"m 394 215 b 533 388 415 226 518 364 b 564 468 550 411 564 439 b 542 535 565 492 556 515 b 468 628 519 568 493 597 b 467 638 467 629 467 636 b 393 694 457 672 426 694 b 353 682 379 694 365 690 b 331 578 318 660 307 613 b 421 468 357 539 392 506 b 300 311 407 446 314 332 b 290 269 292 299 289 283 b 358 206 293 232 325 206 b 394 215 371 206 383 208 z m 179 303 b 288 419 192 318 275 404 b 313 479 301 436 313 457 b 283 539 313 501 300 525 b 193 590 272 550 207 583 b 132 638 185 615 158 638 b 58 569 88 638 63 611 b 85 499 57 551 72 511 b 139 463 100 483 119 472 b 68 386 115 438 92 413 b 119 269 25 340 64 269 b 179 303 144 269 164 283 z "},"¼":{"ha":817,"x_min":0,"x_max":0,"o":"m 306 551 b 338 588 321 558 331 574 b 338 638 344 603 342 621 b 326 711 331 661 329 686 b 311 896 324 738 318 869 b 239 949 303 926 271 949 b 189 926 219 949 204 938 b 129 872 181 921 138 879 b 113 739 60 860 49 769 b 149 731 124 735 136 731 b 185 740 161 731 174 735 b 207 589 189 690 193 639 b 271 543 214 560 243 546 b 306 551 283 542 296 546 z m 169 82 b 558 588 311 240 438 413 b 710 813 610 663 658 739 b 713 879 722 831 722 858 b 651 918 701 904 676 918 b 606 901 635 918 619 913 b 501 751 585 883 518 775 b 63 171 367 549 224 351 b 46 119 50 157 44 138 b 114 57 50 81 81 57 b 169 82 133 57 154 64 z m 729 104 b 764 153 747 113 758 133 b 764 214 767 161 765 204 b 663 340 761 276 735 340 b 600 328 642 340 619 335 b 604 339 600 329 603 338 b 624 357 606 342 621 354 b 569 471 664 404 625 471 b 546 467 563 471 554 469 b 494 425 533 461 501 436 b 460 263 463 379 453 318 b 558 174 465 210 506 174 b 626 189 582 172 604 181 b 631 143 626 174 626 157 b 694 96 638 113 667 99 b 729 104 707 94 719 100 z "},"½":{"ha":822,"x_min":0,"x_max":0,"o":"m 326 622 b 318 658 328 635 322 646 b 306 749 307 686 306 718 b 293 922 304 778 303 896 b 225 971 282 953 254 971 b 197 965 215 971 207 969 b 129 917 183 961 140 925 b 76 872 122 910 83 879 b 129 757 35 824 76 757 b 165 767 142 757 153 760 b 196 590 168 707 171 644 b 256 556 207 568 231 556 b 326 622 297 556 322 581 z m 163 90 b 222 146 185 106 204 126 b 632 738 381 326 500 538 b 693 822 651 767 672 793 b 693 892 706 840 703 871 b 633 926 682 914 658 926 b 579 901 613 926 592 918 b 406 642 517 818 463 729 b 114 235 317 501 226 360 b 51 138 74 228 43 182 b 124 78 57 101 90 78 b 163 90 138 78 151 82 z m 735 131 b 778 219 771 140 788 182 b 714 265 769 244 740 265 b 686 263 704 265 694 264 b 704 321 693 282 699 300 b 688 414 713 351 707 389 b 608 449 668 435 638 449 b 469 381 569 449 489 418 b 547 283 446 329 492 274 b 536 193 539 254 529 222 b 644 117 549 138 592 117 b 735 131 675 117 706 124 z "},"¾":{"ha":847,"x_min":0,"x_max":0,"o":"m 293 535 b 343 675 331 572 349 622 b 279 776 339 715 308 749 b 306 850 289 800 303 824 b 304 893 307 864 307 879 b 190 988 292 950 250 988 b 111 963 165 988 129 979 b 153 833 60 919 88 839 b 139 749 142 807 132 776 b 167 693 143 729 153 710 b 206 654 179 679 193 668 b 121 579 193 618 151 601 b 111 482 90 557 89 513 b 140 461 118 472 129 465 b 164 457 147 458 156 457 b 293 535 204 457 265 507 z m 169 111 b 538 550 292 233 443 407 b 710 838 599 643 650 743 b 650 943 742 889 699 943 b 579 889 614 943 594 918 b 399 592 521 789 464 688 b 226 378 346 517 286 447 b 71 208 176 319 125 263 b 58 140 56 192 53 163 b 125 94 67 111 96 94 b 169 111 142 94 157 99 z m 799 174 b 789 300 804 197 794 278 b 689 389 775 351 746 389 b 639 379 672 389 654 385 b 617 503 686 414 674 488 b 599 506 611 504 604 506 b 485 383 538 506 503 431 b 481 274 472 350 467 308 b 572 214 496 236 529 214 b 658 238 601 214 632 225 b 663 176 660 217 660 196 b 732 119 665 140 697 119 b 799 174 767 119 790 140 z "},"¿":{"ha":588,"x_min":0,"x_max":0,"o":"m 426 871 b 361 964 444 922 406 964 b 308 940 343 964 324 957 b 289 875 292 925 288 899 b 361 818 292 840 326 818 b 426 871 392 818 417 843 z m 493 97 b 543 197 517 126 539 160 b 471 267 546 238 510 267 b 421 243 449 267 436 258 b 403 211 413 235 410 222 b 269 135 376 164 324 135 b 213 150 250 135 228 139 b 182 194 199 161 188 178 b 189 246 178 211 182 229 b 228 310 197 268 213 290 b 372 471 274 367 326 415 b 435 690 419 531 442 615 b 367 749 432 724 397 749 b 301 703 339 749 311 732 b 297 657 296 689 297 672 b 256 547 297 618 279 578 b 144 425 242 531 158 442 b 46 253 100 376 60 318 b 201 6 22 146 94 33 b 268 -3 222 0 244 -3 b 493 97 351 -3 439 31 z "},"À":{"ha":672,"x_min":0,"x_max":0,"o":"m 354 626 b 383 731 364 661 372 696 b 451 333 400 597 428 465 b 265 317 389 328 328 322 b 354 626 300 418 326 522 z m 144 14 b 215 178 169 68 193 122 b 254 176 228 175 242 175 b 476 196 328 182 401 190 b 499 38 485 143 493 90 b 567 -21 503 1 535 -21 b 621 4 586 -21 606 -12 b 636 49 631 17 635 32 b 631 99 638 56 632 92 b 610 239 625 146 618 192 b 528 703 600 297 535 644 b 508 833 521 747 517 790 b 406 957 499 889 472 957 b 225 678 296 957 246 761 b 14 64 168 465 110 264 b 39 -17 3 38 15 0 b 79 -29 51 -25 65 -29 b 144 14 106 -29 132 -14 z m 536 1068 b 496 1163 554 1106 533 1147 b 415 1200 468 1174 439 1183 b 382 1210 406 1207 394 1210 b 310 1142 340 1210 315 1183 b 335 1089 308 1122 321 1103 b 476 1028 357 1067 446 1028 b 536 1068 500 1028 525 1047 z "},"Á":{"ha":672,"x_min":0,"x_max":0,"o":"m 354 626 b 383 731 364 661 372 696 b 451 333 400 597 428 465 b 265 317 389 328 328 322 b 354 626 300 418 326 522 z m 144 14 b 215 178 169 68 193 122 b 254 176 228 175 242 175 b 476 196 328 182 401 190 b 499 38 485 143 493 90 b 567 -21 503 1 535 -21 b 621 4 586 -21 606 -12 b 636 49 631 17 635 32 b 631 99 638 56 632 92 b 610 239 625 146 618 192 b 528 703 600 297 535 644 b 508 833 521 747 517 790 b 406 957 499 889 472 957 b 225 678 296 957 246 761 b 14 64 168 465 110 264 b 39 -17 3 38 15 0 b 79 -29 51 -25 65 -29 b 144 14 106 -29 132 -14 z m 413 1033 b 490 1114 425 1044 481 1100 b 500 1149 497 1124 499 1136 b 485 1193 501 1164 493 1181 b 456 1214 478 1203 467 1210 b 432 1219 449 1218 440 1219 b 374 1190 406 1219 393 1210 b 306 1122 351 1167 328 1144 b 289 1078 294 1111 290 1093 b 357 1007 285 1039 318 1010 b 360 1007 358 1007 358 1007 b 413 1033 379 1007 399 1019 z "},"Â":{"ha":672,"x_min":0,"x_max":0,"o":"m 354 626 b 383 731 364 661 372 696 b 451 333 400 597 428 465 b 265 317 389 328 328 322 b 354 626 300 418 326 522 z m 144 14 b 215 178 169 68 193 122 b 254 176 228 175 242 175 b 476 196 328 182 401 190 b 499 38 485 143 493 90 b 567 -21 503 1 535 -21 b 621 4 586 -21 606 -12 b 636 49 631 17 635 32 b 631 99 638 56 632 92 b 610 239 625 146 618 192 b 528 703 600 297 535 644 b 508 833 521 747 517 790 b 406 957 499 889 472 957 b 225 678 296 957 246 761 b 14 64 168 465 110 264 b 39 -17 3 38 15 0 b 79 -29 51 -25 65 -29 b 144 14 106 -29 132 -14 z m 525 1018 b 508 1124 556 1049 543 1099 b 476 1157 496 1132 488 1146 b 375 1210 449 1188 418 1210 b 296 1178 346 1210 317 1199 b 244 1107 275 1157 250 1135 b 314 1025 238 1064 271 1025 b 376 1061 338 1025 363 1042 b 431 1007 393 1042 408 1019 b 474 994 439 1001 461 994 b 525 1018 492 994 511 1004 z "},"Ã":{"ha":672,"x_min":0,"x_max":0,"o":"m 354 626 b 383 731 364 661 372 696 b 451 333 400 597 428 465 b 265 317 389 328 328 322 b 354 626 300 418 326 522 z m 144 14 b 215 178 169 68 193 122 b 254 176 228 175 242 175 b 476 196 328 182 401 190 b 499 38 485 143 493 90 b 567 -21 503 1 535 -21 b 621 4 586 -21 606 -12 b 636 49 631 17 635 32 b 631 99 638 56 632 92 b 610 239 625 146 618 192 b 528 703 600 297 535 644 b 508 833 521 747 517 790 b 406 957 499 889 472 957 b 225 678 296 957 246 761 b 14 64 168 465 110 264 b 39 -17 3 38 15 0 b 79 -29 51 -25 65 -29 b 144 14 106 -29 132 -14 z m 386 1043 b 449 1019 406 1032 426 1022 b 513 1026 469 1015 492 1018 b 579 1174 575 1051 624 1122 b 526 1199 565 1190 546 1199 b 464 1158 501 1199 476 1185 b 411 1186 446 1167 429 1178 b 372 1192 400 1190 386 1192 b 265 1113 329 1192 281 1151 b 332 1017 247 1060 289 1017 b 386 1043 351 1017 371 1025 z "},"Ä":{"ha":672,"x_min":0,"x_max":0,"o":"m 354 626 b 383 731 364 661 372 696 b 451 333 400 597 428 465 b 265 317 389 328 328 322 b 354 626 300 418 326 522 z m 144 14 b 215 178 169 68 193 122 b 254 176 228 175 242 175 b 476 196 328 182 401 190 b 499 38 485 143 493 90 b 567 -21 503 1 535 -21 b 621 4 586 -21 606 -12 b 636 49 631 17 635 32 b 631 99 638 56 632 92 b 610 239 625 146 618 192 b 528 703 600 297 535 644 b 508 833 521 747 517 790 b 406 957 499 889 472 957 b 225 678 296 957 246 761 b 14 64 168 465 110 264 b 39 -17 3 38 15 0 b 79 -29 51 -25 65 -29 b 144 14 106 -29 132 -14 z m 335 1049 b 319 1157 365 1081 357 1131 b 272 1167 308 1165 286 1167 b 222 1143 253 1167 235 1156 b 229 1044 194 1115 201 1072 b 278 1028 240 1033 260 1028 b 335 1049 303 1028 315 1033 z m 528 1111 b 472 1193 539 1149 510 1186 b 458 1194 468 1194 463 1194 b 424 1060 385 1194 351 1093 b 454 1053 433 1056 444 1053 b 528 1111 488 1053 518 1076 z "},"Æ":{"ha":907,"x_min":0,"x_max":0,"o":"m 354 626 b 383 731 364 661 372 696 b 451 333 400 597 428 465 b 265 317 389 328 328 322 b 354 626 300 418 326 522 z m 144 14 b 215 178 169 68 193 122 b 254 176 228 175 242 175 b 476 196 328 182 401 190 b 499 38 485 143 493 90 b 567 -21 503 6 535 -21 b 603 -12 579 -21 592 -15 b 824 33 676 4 749 24 b 825 169 901 43 901 157 b 813 171 822 169 818 171 b 626 136 765 171 657 143 b 597 311 618 194 607 253 b 676 322 624 314 650 319 b 750 329 688 324 740 325 b 771 447 800 347 813 414 b 739 463 763 456 751 460 b 572 447 713 471 600 451 b 528 703 567 479 532 671 b 508 833 521 747 517 790 b 764 857 596 849 675 857 b 813 876 781 857 800 864 b 764 996 857 921 826 996 b 604 989 710 996 657 994 b 443 964 550 982 497 972 b 417 956 439 964 421 956 b 343 933 388 958 365 951 b 225 678 279 881 244 756 b 14 64 168 465 110 264 b 39 -17 3 38 15 0 b 79 -29 51 -25 65 -29 b 144 14 106 -29 132 -14 z "},"Ç":{"ha":644,"x_min":0,"x_max":0,"o":"m 540 -219 b 556 -137 556 -196 558 -165 b 421 -17 549 -68 482 -31 b 429 0 422 -14 426 -1 b 592 125 492 26 547 72 b 625 182 606 142 615 163 b 585 272 640 217 619 256 b 564 276 579 275 572 276 b 507 253 540 276 525 268 b 493 228 501 246 497 236 b 339 121 472 186 392 121 b 188 317 239 121 192 232 b 258 692 181 444 200 579 b 351 806 281 736 310 779 b 376 815 360 810 367 815 b 396 810 383 817 390 814 b 429 797 407 806 418 800 b 475 804 444 793 461 799 b 475 926 524 828 524 904 b 436 946 469 929 442 943 b 381 954 418 951 400 954 b 82 617 221 954 117 750 b 47 333 57 525 46 428 b 267 -7 50 183 115 42 b 251 -58 260 -22 253 -40 b 293 -128 251 -85 268 -117 b 393 -153 325 -143 360 -146 b 388 -285 328 -171 324 -262 b 413 -289 396 -287 404 -289 b 540 -219 458 -289 515 -257 z "},"È":{"ha":540,"x_min":0,"x_max":0,"o":"m 358 1063 b 368 1189 414 1078 421 1164 b 304 1221 347 1199 324 1207 b 265 1231 294 1228 278 1231 b 204 1186 239 1231 214 1211 b 203 1139 197 1172 199 1154 b 311 1064 213 1101 279 1076 b 335 1060 318 1061 326 1060 b 358 1063 343 1060 351 1061 z m 485 14 b 438 142 553 53 514 156 b 247 124 374 131 311 118 b 222 128 242 124 226 125 b 213 157 217 132 214 151 b 210 413 199 242 204 328 b 344 425 232 413 324 417 b 333 558 411 449 403 546 b 321 560 329 560 325 560 b 290 556 310 560 300 557 b 221 551 267 554 244 553 b 243 865 225 590 239 826 b 381 869 289 869 335 875 b 424 865 396 868 410 867 b 458 874 436 864 449 869 b 490 910 474 881 483 896 b 450 1000 506 944 485 983 b 342 1011 431 1007 367 1011 b 226 1003 303 1011 264 1006 b 206 1010 224 1003 208 1010 b 147 996 186 1015 163 1008 b 117 949 133 983 124 965 b 94 726 103 915 97 763 b 68 353 88 601 74 476 b 76 132 64 279 63 204 b 268 -17 96 21 164 -17 b 485 14 318 -17 454 -4 z "},"É":{"ha":540,"x_min":0,"x_max":0,"o":"m 325 1075 b 386 1119 333 1081 376 1115 b 429 1167 407 1128 424 1144 b 360 1253 443 1215 404 1253 b 314 1239 344 1253 328 1249 b 246 1189 290 1222 269 1206 b 222 1151 235 1181 226 1167 b 290 1065 210 1106 247 1065 b 325 1075 301 1065 314 1068 z m 485 14 b 438 142 553 53 514 156 b 247 124 374 131 311 118 b 222 128 242 124 226 125 b 213 157 217 132 214 151 b 210 413 199 242 204 328 b 344 425 232 413 324 417 b 333 558 411 449 403 546 b 321 560 329 560 325 560 b 290 556 310 560 300 557 b 221 551 267 554 244 553 b 243 865 225 590 239 826 b 381 869 289 869 335 875 b 424 865 396 868 410 867 b 458 874 436 864 449 869 b 490 910 474 881 483 896 b 450 1000 506 944 485 983 b 342 1011 431 1007 367 1011 b 226 1003 303 1011 264 1006 b 206 1010 224 1003 208 1010 b 147 996 186 1015 163 1008 b 117 949 133 983 124 965 b 94 726 103 915 97 763 b 68 353 88 601 74 476 b 76 132 64 279 63 204 b 268 -17 96 21 164 -17 b 485 14 318 -17 454 -4 z "},"Ê":{"ha":540,"x_min":0,"x_max":0,"o":"m 301 1057 b 332 1092 315 1064 325 1078 b 338 1106 333 1097 332 1108 b 410 1069 363 1093 386 1081 b 451 1067 422 1063 439 1064 b 468 1194 513 1083 524 1165 b 360 1247 432 1213 397 1232 b 315 1257 346 1253 331 1257 b 251 1226 289 1257 269 1244 b 201 1147 240 1215 207 1161 b 267 1047 178 1099 219 1047 b 301 1057 278 1047 290 1050 z m 485 14 b 438 142 553 53 514 156 b 247 124 374 131 311 118 b 222 128 242 124 226 125 b 213 157 217 132 214 151 b 210 413 199 242 204 328 b 344 425 232 413 324 417 b 333 558 411 449 403 546 b 321 560 329 560 325 560 b 290 556 310 560 300 557 b 221 551 267 554 244 553 b 243 865 225 590 239 826 b 381 869 289 869 335 875 b 424 865 396 868 410 867 b 458 874 436 864 449 869 b 490 910 474 881 483 896 b 450 1000 506 944 485 983 b 342 1011 431 1007 367 1011 b 226 1003 303 1011 264 1006 b 206 1010 224 1003 208 1010 b 147 996 186 1015 163 1008 b 117 949 133 983 124 965 b 94 726 103 915 97 763 b 68 353 88 601 74 476 b 76 132 64 279 63 204 b 268 -17 96 21 164 -17 b 485 14 318 -17 454 -4 z "},"Ë":{"ha":540,"x_min":0,"x_max":0,"o":"m 446 1106 b 451 1168 458 1124 458 1149 b 386 1214 440 1199 413 1214 b 318 1157 354 1214 324 1194 b 386 1074 310 1107 347 1074 b 446 1106 408 1074 431 1083 z m 293 1103 b 301 1150 303 1117 303 1133 b 231 1208 300 1182 263 1208 b 164 1113 186 1208 150 1161 b 193 1075 168 1097 181 1085 b 226 1065 204 1068 215 1065 b 293 1103 251 1065 276 1081 z m 485 14 b 438 142 553 53 514 156 b 247 124 374 131 311 118 b 222 128 242 124 226 125 b 213 157 217 132 214 151 b 210 413 199 242 204 328 b 344 425 232 413 324 417 b 333 558 411 449 403 546 b 321 560 329 560 325 560 b 290 556 310 560 300 557 b 221 551 267 554 244 553 b 243 865 225 590 239 826 b 381 869 289 869 335 875 b 424 865 396 868 410 867 b 458 874 436 864 449 869 b 490 910 474 881 483 896 b 450 1000 506 944 485 983 b 342 1011 431 1007 367 1011 b 226 1003 303 1011 264 1006 b 206 1010 224 1003 208 1010 b 147 996 186 1015 163 1008 b 117 949 133 983 124 965 b 94 726 103 915 97 763 b 68 353 88 601 74 476 b 76 132 64 279 63 204 b 268 -17 96 21 164 -17 b 485 14 318 -17 454 -4 z "},"Ì":{"ha":375,"x_min":0,"x_max":0,"o":"m 251 1121 b 272 1150 261 1128 268 1139 b 243 1235 286 1179 271 1218 b 172 1264 221 1247 192 1247 b 128 1281 161 1274 144 1281 b 64 1235 100 1281 74 1260 b 106 1140 47 1200 71 1158 b 194 1106 133 1125 164 1114 b 251 1121 214 1101 236 1110 z m 276 -22 b 331 68 319 -18 342 26 b 290 111 326 88 308 103 b 249 114 278 117 263 115 b 261 633 254 288 258 460 b 265 869 261 663 265 840 b 288 1003 342 875 357 971 b 225 1011 278 1008 236 1011 b 131 1007 193 1010 161 1001 b 49 924 82 1015 43 972 b 126 864 51 886 90 863 b 110 106 124 772 113 197 b 96 -32 24 106 13 -15 b 276 -22 125 -37 249 -26 z "},"Í":{"ha":375,"x_min":0,"x_max":0,"o":"m 229 1092 b 264 1128 236 1096 256 1125 b 307 1219 303 1138 317 1182 b 239 1268 300 1244 265 1268 b 188 1249 221 1268 201 1260 b 132 1190 178 1242 140 1199 b 117 1133 119 1175 114 1153 b 185 1078 124 1097 153 1078 b 229 1092 200 1078 215 1082 z m 276 -22 b 331 68 319 -18 342 26 b 290 111 326 88 308 103 b 249 114 278 117 263 115 b 261 633 254 288 258 460 b 265 869 261 663 265 840 b 288 1003 342 875 357 971 b 225 1011 278 1008 236 1011 b 131 1007 193 1010 161 1001 b 49 924 82 1015 43 972 b 126 864 51 886 90 863 b 110 106 124 772 113 197 b 96 -32 24 106 13 -15 b 276 -22 125 -37 249 -26 z "},"Î":{"ha":375,"x_min":0,"x_max":0,"o":"m 125 1093 b 171 1135 133 1097 164 1129 b 253 1088 199 1119 222 1094 b 310 1101 272 1082 293 1090 b 331 1131 319 1108 325 1119 b 332 1178 338 1144 336 1163 b 301 1215 328 1193 314 1206 b 225 1264 290 1222 238 1258 b 165 1279 207 1272 186 1279 b 107 1261 144 1279 124 1272 b 35 1197 81 1243 58 1219 b 42 1099 8 1169 15 1126 b 86 1082 54 1088 71 1083 b 125 1093 100 1081 113 1086 z m 276 -22 b 331 68 319 -18 342 26 b 290 111 326 88 308 103 b 249 114 278 117 263 115 b 261 633 254 288 258 460 b 265 869 261 663 264 840 b 288 1003 342 875 357 971 b 225 1011 278 1008 236 1011 b 131 1007 193 1010 161 1001 b 47 924 82 1015 43 972 b 126 864 51 886 89 863 b 110 106 124 772 113 197 b 96 -32 24 106 13 -15 b 276 -22 124 -37 247 -26 z "},"Ï":{"ha":375,"x_min":0,"x_max":0,"o":"m 328 1138 b 268 1244 354 1185 321 1239 b 265 1244 267 1244 265 1244 b 224 1228 250 1244 235 1236 b 213 1129 193 1207 188 1158 b 268 1103 228 1113 247 1103 b 328 1138 292 1103 315 1115 z m 179 1182 b 108 1233 171 1214 140 1233 b 71 1224 96 1233 83 1231 b 93 1094 15 1190 29 1106 b 107 1093 97 1093 103 1093 b 179 1182 154 1093 192 1135 z m 276 -22 b 331 68 319 -18 342 26 b 290 111 326 88 308 103 b 249 114 278 117 263 115 b 261 633 254 288 258 460 b 265 869 261 663 264 840 b 288 1003 342 875 357 971 b 225 1011 278 1008 236 1011 b 131 1007 193 1010 161 1001 b 47 924 82 1015 43 972 b 126 864 51 886 89 863 b 110 106 124 772 113 197 b 96 -32 24 106 13 -15 b 276 -22 124 -37 247 -26 z "},"Ñ":{"ha":722,"x_min":0,"x_max":0,"o":"m 475 1029 b 590 1169 544 1044 608 1101 b 524 1215 582 1200 554 1215 b 460 1172 492 1215 474 1200 b 449 1165 458 1168 451 1165 b 392 1193 438 1165 401 1189 b 303 1217 364 1206 333 1217 b 185 1117 249 1217 193 1171 b 254 1031 176 1065 215 1031 b 318 1075 279 1031 304 1044 b 389 1039 343 1064 365 1049 b 449 1026 407 1031 428 1026 b 475 1029 458 1026 467 1026 z m 210 42 b 221 629 226 236 218 433 b 451 86 303 451 375 268 b 553 -15 471 42 497 -15 b 638 85 610 -15 632 36 b 642 246 642 138 642 192 b 639 613 642 368 640 490 b 644 897 639 708 636 803 b 629 942 646 913 638 929 b 576 968 617 960 596 968 b 510 921 547 968 518 951 b 501 843 503 896 503 869 b 503 325 496 671 501 499 b 233 918 419 526 335 726 b 167 958 219 944 193 958 b 89 839 97 958 92 890 b 72 57 71 579 93 317 b 140 -19 69 13 103 -19 b 210 42 175 -19 207 7 z "},"Ò":{"ha":703,"x_min":0,"x_max":0,"o":"m 317 128 b 188 439 225 174 192 350 b 240 728 185 536 199 639 b 360 840 265 783 311 840 b 481 706 419 840 464 751 b 496 326 524 586 526 449 b 350 121 482 265 428 126 b 317 128 339 119 326 122 z m 606 215 b 651 569 649 326 663 451 b 358 972 635 729 554 972 b 86 711 215 972 124 833 b 63 321 46 588 39 449 b 342 -12 89 183 176 -12 b 606 215 474 -12 561 104 z m 432 1051 b 428 1179 489 1078 486 1157 b 392 1190 422 1181 396 1188 b 333 1229 371 1201 356 1222 b 286 1231 318 1235 301 1233 b 240 1165 257 1219 243 1194 b 256 1121 239 1150 246 1133 b 403 1046 279 1088 361 1046 b 432 1051 414 1046 424 1047 z "},"Ó":{"ha":703,"x_min":0,"x_max":0,"o":"m 317 128 b 188 439 225 174 192 350 b 240 728 185 536 199 639 b 360 840 265 783 311 840 b 481 706 419 840 464 751 b 496 326 524 586 526 449 b 350 121 482 265 428 126 b 317 128 339 119 326 122 z m 606 215 b 651 569 649 326 663 451 b 358 972 635 729 554 972 b 86 711 215 972 124 833 b 63 321 46 588 39 449 b 342 -12 89 183 176 -12 b 606 215 474 -12 561 104 z m 364 1042 b 407 1088 372 1047 399 1083 b 385 1222 479 1114 461 1215 b 381 1222 383 1222 382 1222 b 261 1131 333 1222 285 1167 b 251 1097 254 1121 253 1108 b 267 1051 250 1081 258 1065 b 318 1026 279 1035 299 1026 b 364 1042 333 1026 350 1032 z "},"Ô":{"ha":703,"x_min":0,"x_max":0,"o":"m 317 128 b 188 439 225 174 192 350 b 240 728 185 536 199 639 b 360 840 265 783 311 840 b 481 706 419 840 464 751 b 496 326 524 586 526 449 b 350 121 482 265 428 126 b 317 128 339 119 326 122 z m 606 215 b 651 569 649 326 663 451 b 358 972 635 729 554 972 b 86 711 215 972 124 833 b 63 321 46 588 39 449 b 342 -12 89 183 176 -12 b 606 215 474 -12 561 104 z m 283 1038 b 336 1075 303 1047 319 1061 b 394 1042 353 1060 374 1049 b 431 1044 407 1039 419 1042 b 468 1075 446 1049 458 1063 b 443 1169 489 1107 475 1149 b 429 1178 439 1174 433 1174 b 386 1217 415 1190 403 1207 b 343 1228 372 1224 357 1228 b 311 1222 332 1228 321 1225 b 228 1167 279 1210 254 1186 b 218 1161 225 1164 221 1163 b 225 1039 172 1129 175 1063 b 257 1032 235 1035 246 1032 b 283 1038 265 1032 275 1033 z "},"Õ":{"ha":703,"x_min":0,"x_max":0,"o":"m 317 128 b 188 439 225 174 192 350 b 240 728 185 536 199 639 b 360 840 265 783 311 840 b 481 706 419 840 464 751 b 496 326 524 586 526 449 b 350 121 482 265 428 126 b 317 128 339 119 326 122 z m 606 215 b 651 569 649 326 663 451 b 358 972 635 729 554 972 b 86 711 215 972 124 833 b 63 321 46 588 39 449 b 342 -12 89 183 176 -12 b 606 215 474 -12 561 104 z m 474 1103 b 407 1192 485 1150 450 1192 b 382 1188 399 1192 390 1190 b 340 1163 367 1182 354 1171 b 310 1196 329 1172 322 1188 b 244 1211 292 1210 265 1218 b 181 1172 219 1206 197 1190 b 147 1090 158 1151 142 1119 b 217 1032 154 1054 185 1032 b 260 1049 232 1032 247 1038 b 342 1021 283 1032 314 1021 b 474 1103 383 1021 460 1060 z "},"Ö":{"ha":703,"x_min":0,"x_max":0,"o":"m 317 128 b 188 439 225 174 192 350 b 240 728 185 536 199 639 b 360 840 265 783 311 840 b 481 706 419 840 464 751 b 496 326 524 586 526 449 b 350 121 482 265 428 126 b 317 128 339 119 326 122 z m 606 215 b 651 569 649 326 663 451 b 358 972 635 729 554 972 b 86 711 215 972 124 833 b 63 321 46 588 39 449 b 342 -12 89 183 176 -12 b 606 215 474 -12 561 104 z m 342 1083 b 308 1174 358 1117 343 1157 b 278 1181 299 1178 288 1181 b 204 1119 243 1181 211 1156 b 276 1039 196 1075 232 1039 b 342 1083 306 1039 331 1057 z m 506 1083 b 489 1188 536 1114 525 1163 b 450 1199 478 1194 464 1199 b 378 1132 411 1199 383 1171 b 447 1058 374 1086 410 1058 b 506 1083 468 1058 489 1067 z "},"×":{"ha":572,"x_min":0,"x_max":0,"o":"m 165 311 b 289 453 207 358 247 406 b 424 340 332 414 375 374 b 458 331 433 333 446 331 b 511 444 515 325 551 404 b 472 476 500 457 485 465 b 382 557 442 503 411 529 b 454 622 404 581 425 607 b 440 750 507 651 499 733 b 394 747 425 753 408 754 b 281 651 350 726 315 689 b 251 682 271 663 261 672 b 249 693 250 683 249 692 b 183 739 242 722 213 739 b 107 679 149 739 113 714 b 111 640 106 667 108 653 b 189 549 117 619 172 564 b 46 379 165 522 61 410 b 44 338 40 367 40 350 b 111 286 53 304 81 286 b 165 311 131 286 150 294 z "},"Ù":{"ha":722,"x_min":0,"x_max":0,"o":"m 443 1022 b 410 1126 468 1060 450 1107 b 357 1151 392 1135 368 1136 b 276 1175 340 1175 303 1182 b 233 1086 239 1165 224 1124 b 310 1015 240 1063 288 1026 b 372 993 331 1007 351 1000 b 443 1022 397 988 428 1001 z m 590 210 b 651 479 624 296 640 388 b 664 821 664 593 668 707 b 660 922 663 833 661 908 b 590 981 656 954 621 981 b 522 922 558 981 528 956 b 526 754 518 899 526 778 b 490 361 529 622 519 489 b 369 135 475 286 442 175 b 332 121 358 128 347 121 b 251 207 297 121 265 174 b 208 392 226 265 215 328 b 207 663 200 481 201 572 b 226 901 211 742 217 822 b 232 929 228 911 232 919 b 163 1000 236 968 201 996 b 158 1000 161 1000 160 1000 b 92 933 124 1000 96 968 b 72 733 82 867 76 800 b 108 192 60 553 54 364 b 333 -18 142 90 217 -18 b 590 210 449 -18 547 93 z "},"Ú":{"ha":722,"x_min":0,"x_max":0,"o":"m 451 1013 b 508 1085 469 1036 488 1063 b 525 1125 518 1096 524 1110 b 454 1200 529 1169 493 1200 b 411 1185 440 1200 425 1196 b 338 1090 397 1172 349 1106 b 329 1044 329 1078 328 1060 b 399 986 332 1008 365 986 b 451 1013 418 986 439 994 z m 590 210 b 651 479 624 296 640 388 b 664 821 664 593 668 707 b 660 922 663 833 661 908 b 590 981 656 954 621 981 b 522 922 558 981 528 956 b 526 754 518 899 526 778 b 490 361 529 622 519 489 b 369 135 475 286 442 175 b 332 121 358 128 347 121 b 251 207 297 121 265 174 b 208 392 226 265 215 328 b 207 663 200 481 201 572 b 226 901 211 742 217 822 b 232 929 228 911 232 919 b 163 1000 236 968 201 996 b 158 1000 161 1000 160 1000 b 92 933 124 1000 96 968 b 72 733 82 867 76 800 b 108 192 60 553 54 364 b 333 -18 142 90 217 -18 b 590 210 449 -18 547 93 z "},"Û":{"ha":722,"x_min":0,"x_max":0,"o":"m 343 1006 b 379 1029 356 1014 367 1022 b 413 1007 389 1019 399 1011 b 440 1001 422 1003 431 1001 b 508 1088 485 1001 521 1040 b 485 1125 506 1101 497 1117 b 474 1132 483 1126 475 1131 b 392 1176 456 1158 424 1176 b 346 1168 376 1176 360 1174 b 239 1078 308 1153 247 1122 b 303 996 232 1038 261 1000 b 343 1006 317 996 332 999 z m 590 210 b 651 479 624 296 640 388 b 664 821 664 593 668 707 b 660 922 663 833 661 908 b 590 981 656 954 621 981 b 522 922 558 981 528 956 b 526 754 518 899 526 778 b 490 361 529 622 519 489 b 369 135 475 286 442 175 b 332 121 358 128 347 121 b 251 207 297 121 265 174 b 208 392 226 265 215 328 b 207 663 200 481 201 572 b 226 901 211 742 217 822 b 232 929 228 911 232 919 b 163 1000 236 968 201 996 b 158 1000 161 1000 160 1000 b 92 933 124 1000 96 968 b 72 733 82 867 76 800 b 108 192 60 553 54 364 b 333 -18 142 90 217 -18 b 590 210 449 -18 547 93 z "},"Ü":{"ha":722,"x_min":0,"x_max":0,"o":"m 531 1113 b 460 1178 528 1154 493 1178 b 394 1136 433 1178 407 1165 b 400 1067 383 1113 386 1086 b 458 1036 415 1046 438 1036 b 531 1113 497 1036 535 1067 z m 368 1096 b 299 1167 372 1135 338 1167 b 249 1150 282 1167 263 1161 b 282 1028 204 1113 224 1039 b 294 1026 286 1028 290 1026 b 368 1096 332 1026 365 1056 z m 590 210 b 651 479 624 296 640 388 b 664 821 664 593 668 707 b 660 922 663 833 661 908 b 590 981 656 954 621 981 b 522 922 558 981 528 956 b 526 754 518 899 526 778 b 490 361 529 622 519 489 b 369 135 475 286 442 175 b 332 121 358 128 347 121 b 251 207 297 121 265 174 b 208 392 226 265 215 328 b 207 663 200 481 201 572 b 226 901 211 742 217 822 b 232 929 228 911 232 919 b 163 1000 236 968 201 996 b 158 1000 161 1000 160 1000 b 92 933 124 1000 96 968 b 72 733 82 867 76 800 b 108 192 60 553 54 364 b 333 -18 142 90 217 -18 b 590 210 449 -18 547 93 z "},"ß":{"ha":711,"x_min":0,"x_max":0,"o":"m 178 -122 b 175 -87 181 -111 178 -99 b 172 -81 175 -86 172 -82 b 290 688 176 146 206 474 b 344 776 303 721 319 753 b 436 814 368 800 403 817 b 457 807 443 814 451 811 b 479 668 496 779 497 710 b 353 526 454 610 397 571 b 350 425 326 500 325 456 b 407 394 364 408 386 400 b 481 365 432 386 457 378 b 528 319 500 354 518 340 b 488 174 549 278 522 206 b 396 143 464 151 428 138 b 336 179 382 167 360 179 b 282 156 317 179 297 171 b 285 53 256 129 261 81 b 407 4 313 19 363 4 b 672 260 553 4 658 119 b 656 375 675 299 671 340 b 525 497 625 436 588 468 b 610 619 560 533 590 574 b 617 808 635 678 632 749 b 432 953 592 893 521 953 b 143 689 272 953 188 826 b 39 54 78 485 50 268 b 33 -93 38 35 33 -74 b 108 -179 33 -136 64 -179 b 178 -122 140 -179 171 -158 z "},"à":{"ha":556,"x_min":0,"x_max":0,"o":"m 203 161 b 185 264 165 179 165 228 b 274 325 201 293 239 325 b 363 193 329 325 354 236 b 358 189 363 192 360 190 b 247 153 335 168 288 153 b 203 161 231 153 215 156 z m 389 44 b 443 21 404 31 422 21 b 485 38 458 21 474 29 b 510 78 499 46 506 63 b 507 264 518 107 510 233 b 497 343 504 290 499 317 b 358 710 492 443 471 667 b 297 719 339 717 318 719 b 72 576 207 719 96 672 b 79 529 68 561 72 543 b 139 492 89 508 117 492 b 204 538 167 492 193 511 b 208 547 206 542 207 544 b 306 581 225 571 278 585 b 328 532 317 567 322 549 b 347 449 336 506 342 476 b 276 463 325 458 301 463 b 49 300 174 463 85 396 b 46 140 29 251 28 190 b 253 14 79 53 164 14 b 389 44 299 14 347 26 z m 394 833 b 379 956 440 867 432 936 b 325 963 363 963 343 960 b 314 965 322 963 315 963 b 258 993 301 982 279 993 b 221 850 179 993 150 886 b 343 821 250 836 301 821 b 394 833 364 821 382 825 z "},"á":{"ha":553,"x_min":0,"x_max":0,"o":"m 203 161 b 185 264 165 179 165 228 b 274 325 201 293 239 325 b 363 193 329 325 354 236 b 358 189 363 192 360 190 b 247 153 335 168 288 153 b 203 161 231 153 215 156 z m 389 44 b 443 21 404 31 422 21 b 485 38 458 21 474 29 b 510 78 499 46 506 63 b 507 264 518 107 510 233 b 497 343 504 290 499 317 b 358 710 492 443 471 667 b 297 719 339 717 318 719 b 72 576 207 719 96 672 b 79 529 68 561 72 543 b 139 492 89 508 117 492 b 204 538 167 492 193 511 b 208 547 206 542 207 544 b 306 581 225 571 278 585 b 328 532 317 567 322 549 b 347 449 336 506 342 476 b 276 463 325 458 301 463 b 49 300 174 463 85 396 b 46 140 29 251 28 190 b 253 14 79 53 164 14 b 389 44 299 14 347 26 z m 297 810 b 339 854 304 815 332 850 b 349 971 382 879 386 939 b 301 988 336 981 317 988 b 257 969 285 988 269 979 b 200 908 246 963 208 918 b 185 868 190 897 185 882 b 254 793 181 825 217 793 b 297 810 269 793 285 799 z "},"â":{"ha":563,"x_min":0,"x_max":0,"o":"m 210 161 b 192 264 172 179 172 228 b 281 325 208 293 246 325 b 369 193 336 325 361 236 b 365 189 369 192 367 190 b 254 153 342 168 294 153 b 210 161 238 153 222 156 z m 396 44 b 450 21 411 31 429 21 b 492 38 465 21 481 29 b 517 78 506 46 513 63 b 514 264 525 107 517 233 b 504 343 511 290 506 317 b 365 710 499 443 478 667 b 304 719 346 717 325 719 b 79 576 214 719 103 672 b 86 529 75 561 79 543 b 146 492 96 508 124 492 b 211 538 174 492 200 511 b 215 547 213 542 214 544 b 313 581 232 571 285 585 b 335 532 324 567 329 549 b 354 449 343 506 349 476 b 283 463 332 458 308 463 b 56 300 181 463 92 396 b 53 140 36 251 35 190 b 260 14 86 53 171 14 b 396 44 306 14 354 26 z m 433 876 b 410 913 429 890 421 904 b 276 1001 367 944 325 979 b 240 1008 265 1007 253 1008 b 89 879 181 1008 89 946 b 158 810 89 839 122 810 b 218 844 186 810 203 824 b 225 856 219 847 221 853 b 238 865 228 860 233 868 b 342 793 254 856 325 800 b 365 789 350 790 358 789 b 433 876 410 789 444 831 z "},"ã":{"ha":563,"x_min":0,"x_max":0,"o":"m 208 161 b 190 264 171 179 171 228 b 279 325 207 293 244 325 b 368 193 335 325 360 236 b 364 189 368 192 365 190 b 253 153 340 168 293 153 b 208 161 236 153 221 156 z m 394 44 b 449 21 410 31 428 21 b 490 38 464 21 479 29 b 515 78 504 46 511 63 b 513 264 524 107 515 233 b 503 343 510 290 504 317 b 364 710 497 443 476 667 b 303 719 344 717 324 719 b 78 576 213 719 101 672 b 85 529 74 561 78 543 b 144 492 94 508 122 492 b 210 538 172 492 199 511 b 214 547 211 542 213 544 b 311 581 231 571 283 585 b 333 532 322 567 328 549 b 353 449 342 506 347 476 b 282 463 331 458 307 463 b 54 300 179 463 90 396 b 51 140 35 251 33 190 b 258 14 85 53 169 14 b 394 44 304 14 353 26 z m 233 840 b 239 844 235 842 238 844 b 322 819 249 842 313 822 b 365 814 336 817 351 814 b 447 878 404 814 438 840 b 440 925 451 893 447 911 b 404 956 433 939 418 949 b 368 960 393 961 381 961 b 351 956 365 960 354 954 b 247 983 338 958 263 982 b 174 969 222 986 194 983 b 107 903 147 953 125 929 b 136 806 83 869 99 822 b 167 799 146 801 156 799 b 233 840 194 799 222 815 z "},"ä":{"ha":560,"x_min":0,"x_max":0,"o":"m 207 161 b 189 264 169 179 169 228 b 278 325 206 293 243 325 b 367 193 333 325 358 236 b 363 189 367 192 364 190 b 251 153 339 168 292 153 b 207 161 235 153 219 156 z m 393 44 b 447 21 408 31 426 21 b 489 38 463 21 478 29 b 514 78 503 46 510 63 b 511 264 522 107 514 233 b 501 343 508 290 503 317 b 363 710 496 443 475 667 b 301 719 343 717 322 719 b 76 576 211 719 100 672 b 83 529 72 561 76 543 b 143 492 93 508 121 492 b 208 538 171 492 197 511 b 213 547 210 542 211 544 b 310 581 229 571 282 585 b 332 532 321 567 326 549 b 351 449 340 506 346 476 b 281 463 329 458 306 463 b 53 300 178 463 89 396 b 50 140 33 251 32 190 b 257 14 83 53 168 14 b 393 44 303 14 351 26 z m 218 806 b 204 936 281 835 269 919 b 190 938 200 938 194 938 b 119 894 163 938 131 919 b 182 796 99 849 132 796 b 218 806 194 796 207 800 z m 422 846 b 419 921 436 865 433 900 b 357 951 406 940 381 951 b 315 939 342 951 328 947 b 307 832 279 914 276 863 b 357 811 321 818 339 811 b 422 846 382 811 406 824 z "},"æ":{"ha":868,"x_min":0,"x_max":0,"o":"m 172 211 b 265 301 172 265 213 301 b 374 200 325 301 363 254 b 346 179 364 194 356 186 b 249 153 322 164 283 153 b 172 211 207 153 176 165 z m 650 554 b 686 513 669 554 685 533 b 539 371 692 450 597 394 b 650 554 547 415 593 554 z m 764 69 b 828 146 776 82 822 129 b 763 239 846 196 807 239 b 718 222 747 239 732 233 b 639 149 690 200 672 164 b 611 143 631 144 622 143 b 538 222 564 143 547 182 b 822 472 658 263 794 336 b 815 568 828 503 825 538 b 651 693 794 640 724 693 b 464 563 568 693 503 629 b 299 719 439 651 399 719 b 72 576 204 719 100 674 b 79 529 68 561 74 543 b 139 492 89 508 117 492 b 206 538 167 492 193 511 b 208 547 207 542 207 544 b 307 581 225 571 279 585 b 351 425 333 540 344 472 b 267 440 324 436 294 440 b 36 183 131 440 13 328 b 250 15 54 69 142 15 b 450 85 322 15 397 39 b 608 4 488 31 547 4 b 764 69 664 4 721 26 z "},"ç":{"ha":497,"x_min":0,"x_max":0,"o":"m 390 -157 b 385 -62 403 -126 401 -90 b 313 -4 368 -36 340 -17 b 321 18 317 3 318 10 b 383 51 343 25 364 38 b 469 147 403 67 461 124 b 404 242 488 197 447 242 b 360 225 389 242 374 236 b 319 181 354 219 325 186 b 258 146 303 164 282 147 b 175 260 203 139 178 203 b 228 494 171 340 186 426 b 282 553 242 518 258 540 b 300 561 285 556 296 561 b 315 547 303 560 313 550 b 358 532 329 536 344 532 b 425 625 403 532 443 575 b 301 700 408 667 347 700 b 110 567 218 700 149 633 b 36 324 65 494 43 407 b 60 143 31 263 39 200 b 167 25 78 93 118 47 b 156 -21 161 10 156 -6 b 178 -82 157 -43 165 -65 b 247 -126 196 -103 222 -114 b 217 -153 239 -136 229 -146 b 256 -282 151 -190 185 -282 b 390 -157 307 -282 374 -200 z "},"è":{"ha":514,"x_min":0,"x_max":0,"o":"m 294 556 b 329 515 313 556 328 536 b 182 374 335 451 240 397 b 294 556 190 419 236 556 z m 407 71 b 471 147 419 83 465 132 b 404 242 489 197 449 242 b 361 225 390 242 375 236 b 282 151 333 201 315 167 b 254 146 274 147 264 146 b 210 161 238 146 221 151 b 181 225 194 178 186 201 b 465 474 300 265 439 339 b 292 694 488 593 396 694 b 47 408 150 694 74 525 b 51 169 29 331 31 246 b 254 6 78 72 153 8 b 407 71 310 6 368 32 z m 386 833 b 349 935 410 868 389 924 b 294 960 329 940 304 942 b 233 994 281 982 257 994 b 181 969 214 994 194 986 b 207 847 149 932 167 876 b 258 818 222 836 240 825 b 325 801 279 808 303 801 b 386 833 353 801 369 811 z "},"é":{"ha":518,"x_min":0,"x_max":0,"o":"m 294 556 b 329 515 313 556 328 536 b 182 374 335 451 240 397 b 294 556 190 419 236 556 z m 407 71 b 471 147 419 83 465 132 b 404 242 489 197 449 242 b 361 225 390 242 375 236 b 282 151 333 201 315 167 b 254 146 274 147 264 146 b 210 161 238 146 221 151 b 181 225 194 178 186 201 b 465 474 300 265 439 339 b 292 694 488 593 396 694 b 47 408 150 694 74 525 b 51 169 29 331 31 246 b 254 6 78 72 153 8 b 407 71 310 6 368 32 z m 317 792 b 360 836 335 801 347 821 b 408 958 426 836 454 911 b 342 981 394 971 361 981 b 222 888 292 981 249 925 b 219 822 210 869 211 842 b 282 782 232 797 257 782 b 317 792 294 782 306 785 z "},"ê":{"ha":526,"x_min":0,"x_max":0,"o":"m 299 556 b 333 515 317 556 332 536 b 186 374 339 451 244 397 b 299 556 194 419 240 556 z m 411 71 b 475 147 424 83 469 132 b 408 242 493 197 453 242 b 365 225 394 242 379 236 b 286 151 338 201 319 167 b 258 146 278 147 268 146 b 214 161 242 146 225 151 b 185 225 199 178 190 201 b 469 474 304 265 443 339 b 296 694 492 593 400 694 b 51 408 154 694 78 525 b 56 169 33 331 35 246 b 258 6 82 72 157 8 b 411 71 314 6 372 32 z m 463 821 b 454 921 490 849 482 893 b 365 1000 425 949 397 976 b 314 1015 350 1010 332 1015 b 253 996 293 1015 271 1007 b 178 938 226 979 203 957 b 163 800 92 938 79 817 b 250 818 192 793 225 801 b 310 865 271 833 290 850 b 397 799 338 842 361 808 b 463 821 419 793 446 804 z "},"ë":{"ha":524,"x_min":0,"x_max":0,"o":"m 301 556 b 336 515 319 556 335 536 b 189 374 342 451 247 397 b 301 556 197 419 243 556 z m 414 71 b 478 147 426 83 472 132 b 411 242 496 197 456 242 b 368 225 397 242 382 236 b 289 151 340 201 322 167 b 261 146 281 147 271 146 b 217 161 244 146 228 151 b 188 225 201 178 193 201 b 472 474 307 265 446 339 b 299 694 494 593 403 694 b 54 408 157 694 81 525 b 58 169 36 331 38 246 b 261 6 85 72 160 8 b 414 71 317 6 375 32 z m 214 913 b 147 951 200 936 175 951 b 88 849 96 951 61 894 b 154 808 101 825 126 808 b 214 913 207 808 242 865 z m 410 807 b 394 929 456 840 447 910 b 358 936 383 933 371 936 b 314 924 342 936 326 932 b 318 806 272 893 274 832 b 365 796 333 799 350 796 b 410 807 382 796 397 799 z "},"ì":{"ha":317,"x_min":0,"x_max":0,"o":"m 265 842 b 222 932 282 876 258 917 b 100 971 183 949 143 971 b 50 947 78 971 65 963 b 92 831 13 910 39 835 b 107 829 94 829 106 829 b 206 797 140 818 171 797 b 265 842 232 797 254 818 z m 225 68 b 251 583 228 132 247 521 b 254 590 251 585 253 589 b 256 631 260 603 260 618 b 188 683 246 665 218 683 b 118 632 158 683 129 665 b 113 582 114 615 114 599 b 86 68 108 519 89 132 b 149 -3 85 32 114 0 b 156 -3 151 -3 153 -3 b 225 68 194 -3 224 29 z "},"í":{"ha":335,"x_min":0,"x_max":0,"o":"m 160 776 b 244 843 169 785 233 835 b 251 844 246 844 250 844 b 244 982 332 858 326 975 b 238 982 242 982 240 982 b 183 969 219 982 201 976 b 69 882 164 960 86 896 b 44 835 56 871 46 853 b 114 760 40 790 75 760 b 160 776 129 760 146 765 z m 207 68 b 233 583 208 132 229 521 b 235 590 233 585 235 589 b 238 631 242 603 240 618 b 169 683 228 665 199 683 b 94 582 108 683 94 631 b 68 68 90 519 69 132 b 131 -3 67 32 94 0 b 138 -3 133 -3 135 -3 b 207 68 176 -3 206 29 z "},"î":{"ha":386,"x_min":0,"x_max":0,"o":"m 369 846 b 354 890 371 861 364 878 b 314 917 346 904 328 910 b 267 967 293 926 281 949 b 208 1001 251 983 231 997 b 140 985 185 1004 160 997 b 64 933 114 968 92 946 b 35 900 50 926 40 914 b 97 803 13 851 49 803 b 185 846 129 803 161 828 b 232 804 199 831 214 815 b 301 776 247 793 281 776 b 369 846 336 776 367 807 z m 236 68 b 263 583 239 132 260 521 b 265 590 263 585 265 589 b 267 631 271 603 271 618 b 199 683 257 665 229 683 b 129 632 169 683 140 665 b 124 582 125 615 125 599 b 97 68 121 519 100 132 b 161 -3 96 32 125 0 b 168 -3 164 -3 165 -3 b 236 68 207 -3 235 29 z "},"ï":{"ha":368,"x_min":0,"x_max":0,"o":"m 339 856 b 288 953 357 897 332 944 b 275 954 283 954 279 954 b 224 936 257 954 239 946 b 214 838 192 914 192 869 b 265 813 226 821 244 813 b 339 856 299 813 322 828 z m 169 839 b 140 926 182 872 171 908 b 106 936 129 932 117 936 b 32 886 75 936 46 917 b 74 796 15 851 36 810 b 100 792 82 793 90 792 b 169 839 129 792 158 808 z m 236 68 b 263 583 239 132 258 521 b 265 590 263 585 265 589 b 267 631 271 603 271 618 b 199 683 257 665 229 683 b 129 632 169 683 140 665 b 124 582 125 615 125 599 b 97 68 119 519 100 132 b 160 -3 96 32 125 0 b 167 -3 163 -3 164 -3 b 236 68 206 -3 235 29 z "},"ñ":{"ha":664,"x_min":0,"x_max":0,"o":"m 361 794 b 417 783 378 786 397 783 b 551 833 463 783 515 807 b 581 861 563 840 574 850 b 526 964 606 904 576 960 b 517 964 524 964 521 964 b 485 956 506 964 493 963 b 432 926 468 943 451 933 b 414 922 426 924 419 919 b 358 949 396 932 378 943 b 235 844 299 961 250 903 b 240 801 231 829 233 814 b 300 763 251 775 275 763 b 361 794 322 763 346 774 z m 594 85 b 607 315 596 114 606 286 b 590 607 611 413 613 513 b 496 697 576 657 553 697 b 342 610 444 697 376 643 b 196 428 283 558 236 494 b 217 629 201 496 204 563 b 147 711 225 676 186 711 b 74 610 89 711 76 657 b 46 140 57 454 43 297 b 121 33 46 92 61 33 b 178 60 142 33 163 43 b 229 181 192 76 222 161 b 464 532 275 303 358 453 b 467 303 474 456 471 379 b 456 85 464 231 460 157 b 521 15 456 49 483 15 b 594 85 565 15 592 42 z "},"ò":{"ha":579,"x_min":0,"x_max":0,"o":"m 256 136 b 176 333 193 165 176 275 b 217 496 178 389 189 447 b 307 575 236 531 269 575 b 379 511 340 575 367 538 b 382 246 415 431 413 329 b 297 138 365 203 339 157 b 274 132 290 133 282 132 b 256 136 268 132 261 133 z m 540 310 b 519 533 550 383 543 463 b 307 710 490 624 408 710 b 89 550 210 710 129 632 b 64 172 32 438 21 292 b 274 -3 97 79 168 -3 b 540 310 433 -3 521 174 z m 293 814 b 319 933 347 828 363 897 b 242 988 296 954 260 963 b 188 1014 231 1004 207 1014 b 124 917 140 1014 104 965 b 272 811 138 879 231 811 b 293 814 279 811 286 813 z "},"ó":{"ha":578,"x_min":0,"x_max":0,"o":"m 253 136 b 174 333 190 165 174 275 b 214 496 175 389 186 447 b 304 575 233 531 267 575 b 376 511 338 575 364 538 b 379 246 413 431 410 329 b 294 138 363 203 336 157 b 271 132 288 133 279 132 b 253 136 265 132 258 133 z m 538 310 b 517 533 547 383 540 463 b 304 710 488 624 406 710 b 86 550 207 710 126 632 b 61 172 29 438 18 292 b 271 -3 94 79 165 -3 b 538 310 431 -3 518 174 z m 310 797 b 347 826 325 801 336 815 b 374 847 356 833 363 843 b 394 965 424 865 433 928 b 350 982 382 978 367 982 b 283 954 326 982 301 971 b 235 908 267 940 250 925 b 218 864 224 897 219 881 b 233 819 217 849 225 832 b 263 799 240 810 251 803 b 286 794 269 796 278 794 b 310 797 294 794 303 796 z "},"ô":{"ha":583,"x_min":0,"x_max":0,"o":"m 258 136 b 179 333 196 165 179 275 b 219 496 181 389 192 447 b 310 575 239 531 272 575 b 382 511 343 575 369 538 b 385 246 418 431 415 329 b 300 138 368 203 342 157 b 276 132 293 133 285 132 b 258 136 271 132 264 133 z m 543 310 b 522 533 553 383 546 463 b 310 710 493 624 411 710 b 92 550 213 710 132 632 b 67 172 35 438 24 292 b 276 -3 100 79 171 -3 b 543 310 436 -3 524 174 z m 432 879 b 407 904 425 890 417 897 b 369 921 396 913 381 913 b 258 975 338 947 303 975 b 107 849 194 972 114 917 b 122 803 106 832 113 817 b 151 782 129 793 140 788 b 172 778 158 779 165 778 b 228 801 196 778 211 785 b 239 817 231 803 236 814 b 258 832 244 822 251 828 b 306 797 274 821 288 807 b 371 775 325 786 349 775 b 432 879 425 775 458 833 z "},"õ":{"ha":588,"x_min":0,"x_max":0,"o":"m 257 136 b 178 333 194 165 178 275 b 218 496 179 389 190 447 b 308 575 238 531 271 575 b 381 511 342 575 368 538 b 383 246 417 431 414 329 b 299 138 367 203 340 157 b 275 132 292 133 283 132 b 257 136 269 132 263 133 z m 542 310 b 521 533 551 383 544 463 b 308 710 492 624 410 710 b 90 550 211 710 131 632 b 65 172 33 438 22 292 b 275 -3 99 79 169 -3 b 542 310 435 -3 522 174 z m 210 776 b 247 803 224 782 235 793 b 329 778 272 788 300 778 b 492 893 381 778 486 835 b 422 969 496 936 461 969 b 399 965 414 969 407 968 b 328 917 372 956 354 926 b 274 946 310 926 293 940 b 242 951 264 950 253 951 b 117 849 199 951 121 896 b 186 772 113 806 147 772 b 210 776 194 772 201 774 z "},"ö":{"ha":583,"x_min":0,"x_max":0,"o":"m 256 136 b 176 333 193 165 176 275 b 217 496 178 389 189 447 b 307 575 236 531 269 575 b 379 511 340 575 367 538 b 382 246 415 431 413 329 b 297 138 365 203 339 157 b 274 132 290 133 282 132 b 256 136 268 132 261 133 z m 540 310 b 519 533 550 383 543 463 b 307 710 490 624 408 710 b 89 550 210 710 129 632 b 64 172 32 438 21 292 b 274 -3 97 79 168 -3 b 540 310 433 -3 521 174 z m 256 790 b 256 897 289 818 289 869 b 206 915 240 910 224 915 b 129 864 175 915 143 896 b 181 772 111 825 139 783 b 193 771 185 771 189 771 b 256 790 214 771 244 781 z m 471 831 b 421 929 490 872 465 921 b 410 931 418 929 414 931 b 363 918 394 931 378 925 b 336 824 329 903 321 858 b 397 790 347 800 371 790 b 471 831 426 790 458 801 z "},"÷":{"ha":597,"x_min":0,"x_max":0,"o":"m 351 704 b 363 756 361 718 365 738 b 290 817 356 796 322 817 b 225 771 263 817 236 803 b 294 674 206 718 250 674 b 351 704 315 674 336 683 z m 529 513 b 557 543 542 518 551 531 b 482 640 582 594 538 650 b 114 608 360 619 238 608 b 71 601 99 608 85 607 b 49 494 31 582 19 529 b 128 468 69 469 99 468 b 529 513 201 468 482 490 z m 342 279 b 361 383 381 297 386 349 b 321 408 353 396 336 404 b 289 407 310 411 299 408 b 236 364 265 406 246 385 b 276 274 219 329 242 290 b 300 269 283 271 292 269 b 342 279 314 269 329 274 z "},"ù":{"ha":563,"x_min":0,"x_max":0,"o":"m 331 944 b 256 982 307 958 275 961 b 206 999 244 993 222 999 b 142 918 165 999 138 960 b 297 815 146 869 250 815 b 331 944 364 815 393 908 z m 496 276 b 511 661 513 353 544 592 b 449 697 501 683 474 697 b 383 640 418 697 392 672 b 385 597 379 626 385 613 b 361 315 389 503 382 407 b 308 188 353 269 339 222 b 276 161 299 178 289 167 b 246 156 267 157 256 154 b 231 174 239 156 233 168 b 186 344 203 226 190 286 b 183 519 182 403 181 461 b 201 636 183 533 200 621 b 149 704 204 665 178 696 b 131 707 143 706 136 707 b 63 643 97 707 68 681 b 43 483 53 590 43 538 b 93 139 43 374 46 239 b 246 17 129 67 158 17 b 496 276 392 17 467 149 z "},"ú":{"ha":564,"x_min":0,"x_max":0,"o":"m 306 768 b 361 846 315 779 350 838 b 385 867 369 853 378 858 b 332 979 426 915 386 979 b 299 971 321 979 310 976 b 188 836 267 960 196 863 b 254 743 169 785 210 743 b 306 768 272 743 290 750 z m 496 276 b 511 661 513 353 544 592 b 449 697 501 683 474 697 b 383 640 418 697 392 672 b 385 597 379 626 385 613 b 361 315 389 503 382 407 b 308 188 353 269 339 222 b 276 161 299 178 289 167 b 246 156 267 157 256 154 b 231 174 239 156 233 168 b 186 344 203 226 190 286 b 183 519 182 403 181 461 b 201 636 183 533 200 621 b 149 704 204 665 178 696 b 131 707 143 706 136 707 b 63 643 97 707 68 681 b 43 483 53 590 43 538 b 93 139 43 374 46 239 b 246 17 129 67 158 17 b 496 276 392 17 467 149 z "},"û":{"ha":565,"x_min":0,"x_max":0,"o":"m 418 861 b 385 907 414 879 401 899 b 354 928 374 911 363 919 b 321 967 343 940 335 956 b 264 985 306 978 283 985 b 140 885 217 985 161 928 b 136 853 136 875 136 864 b 204 792 139 814 171 792 b 264 822 226 792 249 801 b 351 776 286 800 318 776 b 418 861 394 776 431 818 z m 497 276 b 513 661 514 353 546 592 b 450 697 503 683 475 697 b 385 640 419 697 393 672 b 386 597 381 626 386 613 b 363 315 390 503 383 407 b 310 188 354 269 340 222 b 278 161 300 178 290 167 b 247 156 268 157 257 154 b 232 174 240 156 235 168 b 188 344 204 226 192 286 b 185 519 183 403 182 461 b 203 636 185 533 201 621 b 150 704 206 665 179 696 b 132 707 144 706 138 707 b 64 643 99 707 69 681 b 44 483 54 590 44 538 b 94 139 44 374 47 239 b 247 17 131 67 160 17 b 497 276 393 17 468 149 z "},"ü":{"ha":567,"x_min":0,"x_max":0,"o":"m 442 860 b 390 928 444 889 419 921 b 368 931 383 931 375 931 b 294 861 326 931 297 901 b 310 817 293 846 301 829 b 339 796 317 807 328 800 b 361 792 346 793 353 792 b 442 860 410 792 436 813 z m 261 860 b 190 925 257 900 225 925 b 142 904 174 925 156 918 b 151 799 111 874 115 824 b 193 786 164 790 179 786 b 261 860 231 786 265 817 z m 497 276 b 513 661 514 353 546 592 b 450 697 503 683 475 697 b 385 640 419 697 393 672 b 386 597 381 626 386 613 b 363 315 390 503 383 407 b 310 188 354 269 340 222 b 278 161 300 178 290 167 b 247 156 268 157 257 154 b 232 174 240 156 235 168 b 188 344 204 226 192 286 b 185 519 183 403 182 461 b 203 636 185 533 201 621 b 150 704 206 665 179 696 b 132 707 144 706 138 707 b 64 643 99 707 69 681 b 44 483 54 590 44 538 b 94 139 44 374 47 239 b 247 17 131 67 160 17 b 497 276 393 17 468 149 z "},"ÿ":{"ha":621,"x_min":0,"x_max":0,"o":"m 431 785 b 457 879 465 801 472 844 b 397 914 446 903 422 914 b 360 906 385 914 372 911 b 333 811 325 889 318 846 b 393 776 344 788 368 776 b 431 785 406 776 418 779 z m 304 818 b 236 906 317 867 279 906 b 196 893 224 906 208 903 b 235 767 139 854 165 767 b 304 818 267 767 296 788 z m 503 -135 b 561 78 546 -82 554 13 b 567 590 575 247 563 419 b 567 639 567 606 568 622 b 497 697 563 671 529 697 b 433 651 468 697 443 679 b 426 585 425 631 429 607 b 264 201 417 488 363 251 b 219 199 250 196 233 194 b 181 319 190 210 182 294 b 210 624 178 421 193 524 b 194 682 213 643 208 667 b 142 707 181 699 161 707 b 74 647 110 707 79 685 b 42 336 57 544 40 440 b 235 58 44 211 81 58 b 426 168 318 58 381 101 b 399 -40 425 107 421 17 b 288 -87 386 -74 319 -87 b 207 -65 254 -87 235 -81 b 172 -56 196 -58 185 -56 b 107 -100 146 -56 119 -72 b 151 -193 90 -136 115 -176 b 290 -226 194 -215 243 -226 b 503 -135 369 -226 451 -197 z "},"Œ":{"ha":972,"x_min":0,"x_max":0,"o":"m 228 253 b 188 467 200 321 189 394 b 240 736 186 558 201 653 b 360 849 265 792 311 849 b 481 714 418 849 464 760 b 496 335 524 594 526 457 b 346 129 481 271 425 129 b 228 253 293 129 247 204 z m 915 35 b 944 65 928 40 938 53 b 893 164 964 107 939 156 b 883 165 890 164 888 165 b 849 157 872 165 860 161 b 743 132 826 149 776 132 b 707 150 726 132 717 136 b 686 415 681 194 685 365 b 803 446 726 419 767 429 b 836 493 819 454 832 475 b 769 576 847 535 813 572 b 767 576 768 576 767 576 b 722 563 751 576 736 568 b 690 556 713 560 701 558 b 719 863 696 658 707 761 b 775 865 738 865 756 865 b 832 863 793 865 811 865 b 890 897 854 863 876 879 b 842 1001 917 935 888 997 b 754 1004 813 1004 783 1007 b 668 999 743 1004 679 999 b 618 963 647 996 626 981 b 606 951 617 960 608 954 b 589 925 599 944 592 936 b 576 833 583 913 578 847 b 358 982 529 913 457 982 b 89 728 219 982 128 847 b 50 435 57 635 44 533 b 247 21 58 289 108 96 b 344 -4 278 4 311 -4 b 564 140 440 -4 515 63 b 744 -7 589 50 649 -7 b 915 35 799 -7 867 13 z "},"œ":{"ha":889,"x_min":0,"x_max":0,"o":"m 253 136 b 174 333 190 165 174 275 b 214 496 175 389 186 447 b 304 575 233 531 267 575 b 376 511 338 575 364 538 b 379 246 413 431 410 329 b 294 138 363 203 336 157 b 271 132 288 133 279 132 b 253 136 265 132 258 133 z m 672 556 b 707 514 690 556 706 536 b 560 372 713 451 618 396 b 672 556 568 418 613 556 z m 458 104 b 632 7 497 40 557 7 b 785 71 690 7 743 29 b 849 147 797 83 843 131 b 783 240 867 197 828 240 b 739 224 768 240 753 235 b 661 151 711 201 693 165 b 633 146 653 147 643 146 b 558 225 585 146 568 185 b 843 474 679 261 817 339 b 672 694 864 589 778 694 b 494 582 596 694 538 642 b 304 710 456 653 390 710 b 86 550 207 710 126 632 b 61 172 29 438 18 292 b 271 -3 94 79 165 -3 b 458 104 347 -3 415 44 z "},"Ÿ":{"ha":758,"x_min":0,"x_max":0,"o":"m 490 1049 b 408 1131 499 1097 457 1139 b 408 992 332 1117 331 1006 b 421 990 413 990 417 990 b 490 1049 454 990 485 1015 z m 313 1011 b 325 1079 328 1028 331 1057 b 260 1126 318 1104 285 1126 b 214 1110 243 1126 226 1119 b 213 1003 178 1085 182 1033 b 254 986 225 990 239 986 b 313 1011 275 986 297 996 z m 425 39 b 429 75 431 50 429 63 b 431 381 428 176 426 279 b 660 715 511 489 590 600 b 718 821 681 750 701 785 b 750 918 733 851 747 883 b 738 958 751 932 746 946 b 681 988 724 978 703 988 b 621 953 657 988 633 976 b 610 919 614 943 613 931 b 553 806 596 879 574 842 b 376 540 499 715 439 626 b 207 826 319 635 261 731 b 144 944 196 846 149 924 b 75 1003 138 982 107 1003 b 7 918 24 1003 7 963 b 294 410 14 858 256 472 b 292 53 290 360 288 103 b 361 -7 296 22 329 -7 b 425 39 388 -7 413 13 z "},"ƒ":{"ha":531,"x_min":0,"x_max":0,"o":"m 183 -154 b 283 31 236 -108 271 -39 b 296 174 292 78 293 126 b 311 493 297 214 308 454 b 368 504 331 496 349 499 b 410 544 386 508 401 526 b 369 635 426 579 404 618 b 322 636 356 640 338 639 b 407 885 333 725 346 815 b 438 881 417 882 426 881 b 499 903 460 881 483 888 b 450 1021 542 946 511 1021 b 440 1021 446 1021 443 1019 b 394 1029 426 1025 410 1029 b 207 782 294 1029 226 860 b 182 626 193 731 188 678 b 89 628 151 625 119 625 b 49 615 75 629 60 624 b 64 493 3 583 11 513 b 172 488 81 488 154 488 b 157 172 169 449 158 211 b 143 36 154 128 156 81 b 13 -85 122 -31 85 -72 b 4 -83 10 -85 7 -83 b -21 -79 -4 -81 -12 -79 b -87 -136 -53 -79 -82 -101 b 3 -224 -97 -187 -49 -224 b 183 -154 63 -224 139 -193 z "},"ˆ":{"ha":397,"x_min":0,"x_max":0,"o":"m 321 856 b 303 861 318 856 306 858 b 228 932 275 881 258 915 b 183 943 214 939 199 943 b 85 882 140 943 111 913 b 58 851 76 872 69 861 b 103 728 4 806 44 728 b 139 738 114 728 126 731 b 183 783 158 747 169 767 b 297 721 214 753 253 721 b 321 856 369 721 393 822 z "},"˜":{"ha":440,"x_min":0,"x_max":0,"o":"m 163 793 b 243 771 188 781 215 771 b 306 788 265 771 286 778 b 403 876 332 800 393 850 b 338 969 419 924 386 969 b 292 953 321 969 304 964 b 242 910 276 938 261 921 b 179 942 232 913 188 938 b 124 947 161 949 142 951 b 35 838 71 940 40 886 b 67 775 33 814 47 789 b 106 764 79 767 92 764 b 163 793 126 764 149 774 z "},"ẞ":{"ha":728,"x_min":0,"x_max":0,"o":"m 196 11 b 232 656 199 96 221 571 b 307 840 239 717 247 806 b 447 868 350 863 400 868 b 492 860 457 868 485 865 b 493 856 492 860 493 857 b 492 810 496 840 494 825 b 378 607 479 733 433 661 b 296 515 349 579 311 553 b 318 431 283 489 296 449 b 360 408 329 419 344 414 b 472 367 397 396 438 386 b 540 300 500 351 525 328 b 550 247 547 283 551 265 b 469 169 547 203 513 157 b 397 228 439 178 421 207 b 353 244 383 239 368 244 b 283 167 315 244 279 211 b 300 128 285 153 290 139 b 483 28 353 75 404 28 b 686 218 582 28 669 111 b 660 369 694 268 683 324 b 481 514 624 442 554 486 b 585 657 522 556 560 604 b 632 868 618 721 638 796 b 447 1007 622 967 536 1007 b 83 553 125 1007 103 806 b 57 29 79 488 60 94 b 61 -14 57 14 56 -1 b 125 -60 72 -46 99 -60 b 196 11 160 -60 194 -35 z "},"–":{"ha":789,"x_min":0,"x_max":0,"o":"m 313 385 b 700 414 365 389 647 404 b 700 551 776 429 776 538 b 661 550 688 554 674 551 b 139 517 590 542 211 515 b 104 526 128 524 115 526 b 38 482 76 526 50 510 b 82 386 21 444 44 404 b 158 378 96 379 125 378 b 313 385 217 378 286 383 z "},"—":{"ha":965,"x_min":0,"x_max":0,"o":"m 865 369 b 890 504 943 367 964 478 b 843 508 875 510 858 508 b 185 507 624 511 404 507 b 181 510 185 507 182 510 b 138 519 169 517 154 519 b 56 497 108 519 75 510 b 38 471 47 490 42 481 b 79 375 19 433 40 390 b 161 369 92 371 149 369 b 865 369 250 368 776 374 z "},"‘":{"ha":303,"x_min":0,"x_max":0,"o":"m 139 693 b 172 728 153 701 161 715 b 254 808 197 757 228 781 b 247 906 281 835 274 879 b 201 922 236 917 219 922 b 156 906 185 922 168 917 b 44 789 117 868 75 833 b 35 749 36 778 33 763 b 104 683 38 710 69 683 b 139 693 117 683 128 688 z "},"’":{"ha":314,"x_min":0,"x_max":0,"o":"m 167 686 b 263 815 178 708 244 796 b 208 929 301 858 268 929 b 165 914 193 929 178 922 b 43 747 140 897 56 775 b 106 649 19 700 58 649 b 167 686 128 649 158 665 z "},"‚":{"ha":214,"x_min":0,"x_max":0,"o":"m 125 -101 b 181 -11 143 -71 161 -40 b 190 36 190 3 192 21 b 122 94 188 68 153 94 b 78 79 106 94 90 88 b 35 21 68 71 42 31 b -6 -67 18 -7 -3 -35 b 10 -112 -7 -83 1 -99 b 63 -139 19 -126 44 -139 b 125 -101 88 -139 113 -124 z "},"“":{"ha":464,"x_min":0,"x_max":0,"o":"m 151 776 b 213 867 165 786 201 854 b 228 917 224 881 229 899 b 158 981 224 957 192 981 b 103 954 139 981 118 972 b 39 843 88 936 44 865 b 47 796 35 828 40 810 b 104 761 58 772 81 761 b 151 776 119 761 138 767 z m 307 733 b 383 825 322 764 350 810 b 428 872 403 833 422 851 b 361 960 440 918 404 960 b 182 790 283 960 211 851 b 179 749 175 778 176 763 b 247 697 189 715 218 697 b 307 733 271 697 294 708 z "},"”":{"ha":486,"x_min":0,"x_max":0,"o":"m 168 792 b 211 832 179 808 193 824 b 244 875 228 839 239 857 b 174 961 257 924 218 961 b 61 881 128 961 88 914 b 38 839 50 868 42 854 b 93 757 28 801 56 767 b 106 756 97 756 101 756 b 168 792 136 756 151 771 z m 315 725 b 418 815 328 736 407 804 b 451 882 436 833 451 857 b 367 949 451 926 410 961 b 328 925 351 946 338 938 b 321 914 328 924 322 915 b 208 814 304 900 222 829 b 260 697 164 764 203 697 b 315 725 286 697 297 707 z "},"„":{"ha":403,"x_min":0,"x_max":0,"o":"m 147 -69 b 204 39 164 -32 182 6 b 213 49 206 42 211 47 b 222 124 231 67 233 101 b 160 163 211 149 186 163 b 126 154 149 163 138 160 b 76 99 104 142 90 119 b 18 -24 65 79 22 -1 b 86 -106 10 -68 44 -106 b 147 -69 110 -106 136 -92 z m 292 -108 b 338 -19 306 -78 321 -47 b 357 -1 340 -15 356 -4 b 299 113 397 44 360 114 b 240 83 278 113 256 99 b 165 -50 224 65 176 -28 b 176 -118 156 -71 164 -100 b 229 -143 189 -136 210 -143 b 292 -108 254 -143 281 -132 z "},"†":{"ha":490,"x_min":0,"x_max":0,"o":"m 331 92 b 322 593 326 258 321 426 b 400 603 349 594 375 596 b 446 675 428 611 449 646 b 360 736 443 718 403 744 b 325 732 349 733 336 733 b 340 850 325 750 333 832 b 299 943 353 888 336 929 b 278 947 292 946 285 947 b 215 914 250 947 232 936 b 185 722 194 883 188 760 b 129 725 167 722 146 718 b 104 731 121 729 113 731 b 40 685 78 731 53 711 b 38 644 35 672 36 658 b 113 582 40 608 79 585 b 183 583 136 581 160 582 b 193 79 183 517 188 146 b 213 42 194 65 203 53 b 261 21 226 28 244 21 b 331 92 299 21 332 49 z "},"‡":{"ha":772,"x_min":0,"x_max":0,"o":"m 422 35 b 422 303 419 124 418 214 b 675 313 507 306 592 310 b 733 342 697 313 721 324 b 676 451 765 388 732 451 b 431 442 593 449 511 444 b 454 685 436 522 444 604 b 504 686 471 685 488 685 b 538 701 517 688 528 694 b 547 799 568 724 569 767 b 507 824 538 811 522 819 b 472 824 501 825 478 824 b 485 949 475 843 488 931 b 415 1007 482 983 450 1007 b 347 931 368 1007 351 972 b 332 822 342 894 336 858 b 196 810 286 819 240 815 b 188 813 194 810 189 811 b 131 686 115 825 79 738 b 182 669 143 675 165 669 b 258 678 199 669 249 676 b 314 682 276 681 294 682 b 290 436 304 600 296 518 b 160 432 247 435 203 432 b 125 442 149 439 138 442 b 58 410 100 442 75 429 b 103 294 25 367 50 306 b 283 297 129 289 256 296 b 285 22 279 206 276 114 b 353 -36 289 -10 321 -36 b 422 35 390 -36 424 -6 z "},"•":{"ha":340,"x_min":0,"x_max":0,"o":"m 272 467 b 283 635 303 515 308 583 b 160 708 264 678 210 708 b 64 663 126 708 85 689 b 42 581 44 638 38 611 b 44 563 42 575 44 569 b 175 408 44 492 99 408 b 272 467 217 408 251 432 z "},"…":{"ha":599,"x_min":0,"x_max":0,"o":"m 351 139 b 310 153 339 149 324 153 b 240 89 275 153 243 128 b 308 14 236 49 267 17 b 315 14 311 14 314 14 b 351 139 382 14 407 100 z m 564 43 b 499 146 583 96 544 146 b 460 133 486 146 472 142 b 499 -3 401 92 426 3 b 503 -3 500 -3 501 -3 b 564 43 528 -3 556 19 z m 186 75 b 117 144 189 113 156 142 b 113 144 115 144 114 144 b 69 129 97 144 83 138 b 100 -3 0 89 31 -3 b 186 75 144 -3 182 32 z "},"‰":{"ha":860,"x_min":0,"x_max":0,"o":"m 158 60 b 188 108 172 71 179 92 b 232 182 200 133 215 158 b 754 818 378 404 557 640 b 769 825 756 819 767 824 b 803 872 786 833 799 853 b 781 938 810 894 797 921 b 736 954 768 950 753 954 b 668 928 711 954 686 944 b 158 321 472 750 310 538 b 44 113 131 282 44 160 b 114 43 44 71 79 43 b 158 60 129 43 144 49 z m 247 639 b 175 704 243 675 213 704 b 126 576 115 704 72 622 b 176 558 142 564 160 558 b 247 639 218 558 256 592 z m 772 224 b 804 315 807 239 821 281 b 738 358 792 343 764 358 b 678 324 714 358 692 347 b 742 217 649 274 690 217 b 772 224 751 217 763 219 z m 531 221 b 508 340 574 251 560 328 b 483 344 500 343 492 344 b 456 210 410 344 379 246 b 481 206 463 207 471 206 b 531 221 497 206 517 211 z "},"‹":{"ha":410,"x_min":0,"x_max":0,"o":"m 347 283 b 340 381 375 310 367 354 b 289 400 328 394 307 396 b 229 433 267 407 247 418 b 186 500 213 447 179 478 b 286 622 194 531 260 603 b 306 632 289 624 303 631 b 333 663 318 639 328 650 b 269 760 357 711 319 760 b 63 565 199 760 90 624 b 71 407 38 513 40 458 b 297 258 113 336 213 258 b 347 283 315 258 335 271 z "},"›":{"ha":371,"x_min":0,"x_max":0,"o":"m 176 365 b 268 456 208 394 239 424 b 326 557 294 485 319 518 b 321 621 331 578 328 601 b 113 765 299 679 175 765 b 46 696 75 765 50 733 b 61 651 44 681 53 665 b 103 628 71 639 88 633 b 186 575 118 622 175 585 b 78 463 175 556 94 479 b 65 394 61 446 60 417 b 132 347 74 365 103 347 b 176 365 147 347 164 353 z "},"⁄":{"ha":619,"x_min":0,"x_max":0,"o":"m 167 24 b 243 243 190 97 214 171 b 538 828 324 446 428 639 b 561 865 540 833 557 861 b 593 903 572 879 586 889 b 533 1008 622 954 582 1008 b 499 999 522 1008 510 1006 b 467 968 486 990 476 979 b 417 896 446 947 431 921 b 33 58 269 640 108 346 b 57 -7 28 36 40 10 b 99 -24 68 -18 83 -24 b 167 24 128 -24 158 -6 z "},"€":{"ha":703,"x_min":0,"x_max":0,"o":"m 621 36 b 667 103 642 54 663 76 b 599 185 675 149 639 185 b 564 175 588 185 575 182 b 538 149 553 169 544 158 b 503 118 533 143 508 122 b 426 89 481 101 453 86 b 329 229 383 89 339 197 b 382 242 347 232 365 236 b 421 272 399 246 413 258 b 361 376 447 318 414 372 b 303 365 353 376 311 367 b 299 446 300 392 299 418 b 367 444 308 444 357 443 b 378 578 436 457 444 554 b 303 583 367 582 315 583 b 433 826 315 683 350 765 b 468 838 443 833 456 838 b 543 840 478 839 533 838 b 543 976 619 853 619 963 b 433 974 525 979 450 976 b 269 860 368 963 311 911 b 163 583 206 785 172 682 b 99 579 156 583 107 579 b 40 511 64 576 43 543 b 56 467 39 496 47 479 b 108 440 67 451 90 440 b 160 444 125 440 151 443 b 165 356 160 415 163 385 b 124 235 103 350 81 278 b 189 217 140 218 167 217 b 364 -39 211 128 274 -1 b 432 -50 385 -47 408 -50 b 621 36 503 -50 569 -8 z "},"™":{"ha":860,"x_min":0,"x_max":0,"o":"m 246 740 b 243 888 242 761 243 867 b 288 890 258 889 272 890 b 329 914 303 892 318 903 b 275 1029 369 956 333 1032 b 135 1021 257 1028 153 1022 b 94 1026 124 1028 108 1029 b 104 883 10 1011 18 890 b 107 721 104 860 103 744 b 176 658 115 686 140 658 b 246 740 217 658 254 694 z m 494 697 b 504 747 504 711 504 731 b 507 792 504 761 506 776 b 572 771 526 778 550 771 b 672 808 607 771 644 790 b 681 756 675 790 675 772 b 749 706 692 726 717 706 b 814 799 794 706 832 751 b 808 842 810 813 811 828 b 707 972 803 903 781 969 b 644 954 685 972 664 964 b 579 914 622 942 601 926 b 503 999 568 929 519 989 b 468 1008 492 1006 479 1008 b 401 961 439 1008 410 990 b 378 858 399 947 381 871 b 367 722 369 814 363 767 b 432 664 369 692 403 664 b 494 697 456 664 481 676 z "},"−":{"ha":582,"x_min":0,"x_max":0,"o":"m 493 433 b 536 457 510 435 525 444 b 481 571 574 503 540 574 b 156 561 439 569 197 560 b 108 581 142 575 125 581 b 32 514 74 581 39 554 b 68 439 26 486 42 454 b 160 422 93 425 131 422 b 493 433 231 422 450 429 z "}}}
